<svg width="134" height="134" viewBox="0 0 134 134" fill="none" xmlns="http://www.w3.org/2000/svg">
<g clip-path="url(#clip0_249:1126)">
<path d="M51.1992 33.5L62.3659 44.6666H111.667V100.5H22.3334V33.5H51.1992ZM55.8334 22.3333H22.3334C16.1917 22.3333 11.2226 27.3583 11.2226 33.5L11.1667 100.5C11.1667 106.642 16.1917 111.667 22.3334 111.667H111.667C117.808 111.667 122.833 106.642 122.833 100.5V44.6666C122.833 38.525 117.808 33.5 111.667 33.5H67.0001L55.8334 22.3333Z" fill="#323232"/>
</g>
<line x1="48.8857" y1="86.5" x2="89.1143" y2="86.5" stroke="#282828" stroke-width="3"/>
<path d="M50.8478 55.2421C50.255 54.6612 49.3053 54.6692 48.7266 55.2598L39.2958 64.8848C38.7171 65.4755 38.7285 66.4252 39.3214 67.006C39.9142 67.5869 40.8639 67.5789 41.4426 66.9883L49.8255 58.4327L58.4126 66.8465C59.0054 67.4273 59.9551 67.4194 60.5338 66.8287C61.1125 66.2381 61.1011 65.2884 60.5083 64.7076L50.8478 55.2421ZM51.6738 87.3667L51.2999 56.299L48.3 56.3241L48.6739 87.3918L51.6738 87.3667Z" fill="#282828"/>
<defs>
<clipPath id="clip0_249:1126">
<rect width="134" height="134" fill="white"/>
</clipPath>
</defs>
</svg>
