<svg width="64" height="64" viewBox="0 0 64 64" fill="none" xmlns="http://www.w3.org/2000/svg">
<path d="M9.77246 4.94851C9.77246 3.88104 10.6378 3.01569 11.7053 3.01569C11.7053 3.01569 33.3621 3.01569 35.8655 3.01569C37.9717 3.01569 39.2701 4.38377 39.6292 4.81795C39.6996 4.90313 39.7705 4.9878 39.8486 5.06596L52.2895 17.5069C52.2928 17.5102 52.2957 17.513 52.299 17.5163C52.4015 17.6189 54.2273 19.4718 54.2273 21.3775C54.2273 23.3382 54.2273 59.0675 54.2273 59.0675C54.2273 60.1349 53.362 61.0003 52.2945 61.0003H11.7053C10.6378 61.0003 9.77246 60.1349 9.77246 59.0675V4.94851Z" fill="white"/>
<path d="M11.7055 1.51569C11.7054 1.51569 11.7053 1.51569 11.7053 3.01569V1.51569C9.80939 1.51569 8.27246 3.05262 8.27246 4.94851V59.0675C8.27246 60.9634 9.80938 62.5003 11.7053 62.5003H52.2945C54.1904 62.5003 55.7273 60.9634 55.7273 59.0675H54.2273C55.7273 59.0675 55.7273 59.0673 55.7273 59.0671V59.0658V59.0638V59.061V59.0573V59.0529V59.0476V59.0416V59.0347V59.0271V59.0187V59.0095V58.9995V58.9887V58.9772V58.9649V58.9518V58.938V58.9234V58.9081V58.8919V58.8751V58.8575V58.8391V58.82V58.8002V58.7796V58.7583V58.7362V58.7134V58.6899V58.6657V58.6408V58.6151V58.5888V58.5617V58.5339V58.5054V58.4763V58.4464V58.4158V58.3845V58.3526V58.32V58.2867V58.2527V58.218V58.1827V58.1466V58.11V58.0726V58.0346V57.996V57.9567V57.9167V57.8761V57.8349V57.793V57.7505V57.7073V57.6635V57.6191V57.5741V57.5284V57.4821V57.4352V57.3877V57.3396V57.2908V57.2415V57.1916V57.1411V57.0899V57.0382V56.9859V56.933V56.8796V56.8255V56.7709V56.7157V56.6599V56.6036V56.5467V56.4893V56.4312V56.3727V56.3136V56.2539V56.1937V56.1329V56.0717V56.0098V55.9475V55.8846V55.8212V55.7573V55.6928V55.6278V55.5624V55.4964V55.4299V55.3629V55.2954V55.2274V55.1589V55.0899V55.0204V54.9505V54.88V54.8091V54.7377V54.6658V54.5935V54.5207V54.4474V54.3737V54.2995V54.2249V54.1498V54.0742V53.9982V53.9218V53.8449V53.7676V53.6899V53.6117V53.5331V53.4541V53.3747V53.2948V53.2146V53.1339V53.0528V52.9713V52.8895V52.8072V52.7245V52.6414V52.5579V52.4741V52.3899V52.3052V52.2203V52.1349V52.0492V51.9631V51.8766V51.7898V51.7026V51.615V51.5271V51.4389V51.3503V51.2614V51.1721V51.0825V50.9926V50.9023V50.8117V50.7208V50.6296V50.538V50.4462V50.354V50.2615V50.1687V50.0756V49.9822V49.8885V49.7945V49.7003V49.6057V49.5108V49.4157V49.3203V49.2247V49.1287V49.0325V48.936V48.8393V48.7423V48.645V48.5475V48.4498V48.3518V48.2535V48.155V48.0563V47.9574V47.8582V47.7588V47.6591V47.5593V47.4592V47.3589V47.2584V47.1577V47.0567V46.9556V46.8543V46.7528V46.6511V46.5492V46.4471V46.3448V46.2424V46.1397V46.0369V45.934V45.8308V45.7275V45.624V45.5204V45.4166V45.3127V45.2086V45.1043V45V44.8954V44.7908V44.686V44.5811V44.476V44.3708V44.2655V44.1601V44.0546V43.9489V43.8432V43.7373V43.6313V43.5253V43.4191V43.3129V43.2065V43.1001V42.9936V42.887V42.7803V42.6735V42.5667V42.4598V42.3528V42.2458V42.1387V42.0316V41.9244V41.8172V41.7099V41.6025V41.4951V41.3877V41.2803V41.1728V41.0653V40.9578V40.8502V40.7426V40.635V40.5274V40.4198V40.3122V40.2045V40.0969V39.9893V39.8817V39.7741V39.6665V39.5589V39.4513V39.3438V39.2362V39.1287V39.0213V38.9138V38.8065V38.6991V38.5918V38.4845V38.3773V38.2701V38.163V38.056V37.949V37.8421V37.7352V37.6284V37.5217V37.4151V37.3085V37.202V37.0957V36.9894V36.8832V36.777V36.671V36.5651V36.4593V36.3536V36.248V36.1426V36.0372V35.932V35.8269V35.7219V35.617V35.5123V35.4077V35.3033V35.199V35.0948V34.9908V34.887V34.7833V34.6797V34.5763V34.4731V34.3701V34.2672V34.1645V34.062V33.9596V33.8574V33.7554V33.6536V33.552V33.4506V33.3494V33.2484V33.1476V33.047V32.9466V32.8465V32.7465V32.6468V32.5472V32.448V32.3489V32.2501V32.1515V32.0531V31.955V31.8572V31.7595V31.6622V31.5651V31.4682V31.3716V31.2753V31.1792V31.0834V30.9879V30.8926V30.7977V30.703V30.6086V30.5145V30.4207V30.3271V30.2339V30.141V30.0483V29.956V29.864V29.7723V29.6809V29.5899V29.4991V29.4087V29.3186V29.2289V29.1395V29.0504V28.9617V28.8733V28.7852V28.6975V28.6102V28.5232V28.4366V28.3503V28.2644V28.1789V28.0937V28.0089V27.9245V27.8405V27.7569V27.6736V27.5908V27.5083V27.4262V27.3446V27.2633V27.1825V27.102V27.022V26.9424V26.8632V26.7844V26.706V26.6281V26.5506V26.4735V26.3969V26.3207V26.245V26.1697V26.0949V26.0205V25.9465V25.8731V25.8V25.7275V25.6554V25.5838V25.5127V25.442V25.3718V25.3022V25.2329V25.1642V25.096V25.0283V24.9611V24.8943V24.8281V24.7624V24.6972V24.6325V24.5684V24.5047V24.4416V24.379V24.317V24.2555V24.1945V24.134V24.0741V24.0148V23.9559V23.8977V23.84V23.7828V23.7263V23.6702V23.6148V23.5599V23.5056V23.4519V23.3987V23.3462V23.2942V23.2428V23.192V23.1418V23.0922V23.0432V22.9948V22.947V22.8999V22.8533V22.8074V22.7621V22.7174V22.6733V22.6298V22.587V22.5449V22.5033V22.4625V22.4222V22.3826V22.3437V22.3054V22.2678V22.2308V22.1945V22.1588V22.1239V22.0896V22.056V22.023V21.9908V21.9592V21.9283V21.8981V21.8686V21.8399V21.8118V21.7844V21.7577V21.7317V21.7065V21.6819V21.6581V21.635V21.6126V21.591V21.5701V21.5499V21.5305V21.5118V21.4939V21.4767V21.4602V21.4445V21.4296V21.4154V21.402V21.3894V21.3775C55.7273 19.9859 55.0799 18.7457 54.5553 17.9471C54.0082 17.1144 53.4484 16.5444 53.3598 16.4558C53.3598 16.4558 53.3598 16.4558 53.3598 16.4558L53.3531 16.4491L53.3502 16.4462L40.9093 4.00531C40.9093 4.00531 40.9093 4.0053 40.9093 4.0053C40.8873 3.98336 40.8575 3.94957 40.7851 3.86203L39.6292 4.81795L40.7851 3.86203C40.3306 3.31239 38.649 1.51569 35.8655 1.51569H35.8506H35.8353H35.8196H35.8034H35.7868H35.7697H35.7522H35.7343H35.716H35.6972H35.6781H35.6585H35.6385H35.618H35.5972H35.576H35.5543H35.5323H35.5098H35.4869H35.4637H35.44H35.4159H35.3914H35.3666H35.3413H35.3157H35.2896H35.2632H35.2364H35.2092H35.1817H35.1537H35.1254H35.0967H35.0676H35.0381H35.0083H34.9781H34.9476H34.9166H34.8853H34.8537H34.8217H34.7893H34.7566H34.7235H34.6901H34.6563H34.6221H34.5877H34.5528H34.5177H34.4822H34.4463H34.4101H34.3736H34.3367H34.2995H34.262H34.2242H34.186H34.1475H34.1087H34.0695H34.03H33.9902H33.9501H33.9097H33.869H33.828H33.7866H33.7449H33.703H33.6607H33.6182H33.5753H33.5321H33.4887H33.4449H33.4009H33.3565H33.3119H33.267H33.2218H33.1763H33.1305H33.0845H33.0382H32.9916H32.9447H32.8976H32.8501H32.8025H32.7545H32.7063H32.6578H32.6091H32.5601H32.5108H32.4613H32.4115H32.3615H32.3113H32.2607H32.21H32.159H32.1077H32.0562H32.0045H31.9525H31.9003H31.8479H31.7952H31.7423H31.6891H31.6358H31.5822H31.5284H31.4744H31.4201H31.3656H31.311H31.2561H31.201H31.1456H31.0901H31.0344H30.9784H30.9223H30.866H30.8094H30.7527H30.6957H30.6386H30.5813H30.5238H30.4661H30.4082H30.3501H30.2919H30.2334H30.1748H30.116H30.057H29.9979H29.9386H29.8791H29.8194H29.7596H29.6996H29.6395H29.5792H29.5187H29.4581H29.3973H29.3364H29.2753H29.2141H29.1527H29.0911H29.0295H28.9676H28.9057H28.8436H28.7813H28.719H28.6565H28.5938H28.5311H28.4682H28.4051H28.342H28.2787H28.2153H28.1518H28.0882H28.0245H27.9606H27.8966H27.8326H27.7684H27.7041H27.6397H27.5752H27.5106H27.4459H27.3811H27.3162H27.2512H27.1861H27.121H27.0557H26.9904H26.9249H26.8594H26.7938H26.7282H26.6624H26.5966H26.5307H26.4647H26.3987H26.3326H26.2664H26.2002H26.1339H26.0675H26.0011H25.9346H25.8681H25.8015H25.7349H25.6682H25.6015H25.5347H25.4679H25.401H25.3341H25.2672H25.2002H25.1332H25.0661H24.999H24.9319H24.8648H24.7976H24.7304H24.6632H24.596H24.5287H24.4614H24.3942H24.3269H24.2596H24.1922H24.1249H24.0576H23.9902H23.9229H23.8556H23.7882H23.7209H23.6536H23.5862H23.5189H23.4516H23.3843H23.317H23.2498H23.1825H23.1153H23.0481H22.9809H22.9138H22.8466H22.7795H22.7125H22.6454H22.5784H22.5115H22.4445H22.3776H22.3108H22.244H22.1772H22.1105H22.0438H21.9772H21.9107H21.8442H21.7777H21.7113H21.645H21.5787H21.5125H21.4464H21.3803H21.3143H21.2483H21.1825H21.1167H21.051H20.9853H20.9198H20.8543H20.7889H20.7236H20.6584H20.5932H20.5282H20.4633H20.3984H20.3336H20.269H20.2044H20.14H20.0756H20.0114H19.9472H19.8832H19.8193H19.7554H19.6918H19.6282H19.5647H19.5014H19.4381H19.3751H19.3121H19.2492H19.1865H19.1239H19.0615H18.9992H18.937H18.8749H18.813H18.7513H18.6897H18.6282H18.5669H18.5057H18.4447H18.3838H18.3231H18.2625H18.2021H18.1419H18.0818H18.0219H17.9621H17.9025H17.8431H17.7839H17.7248H17.6659H17.6072H17.5486H17.4903H17.4321H17.3741H17.3163H17.2587H17.2012H17.144H17.0869H17.0301H16.9734H16.917H16.8607H16.8046H16.7488H16.6931H16.6377H16.5825H16.5274H16.4726H16.418H16.3636H16.3095H16.2555H16.2018H16.1483H16.0951H16.042H15.9892H15.9366H15.8843H15.8322H15.7803H15.7287H15.6773H15.6261H15.5752H15.5245H15.4741H15.424H15.374H15.3244H15.275H15.2258H15.1769H15.1283H15.0799H15.0318H14.984H14.9364H14.8891H14.8421H14.7953H14.7488H14.7026H14.6567H14.611H14.5657H14.5206H14.4758H14.4313H14.387H14.3431H14.2995H14.2561H14.2131H14.1703H14.1279H14.0858H14.0439H14.0024H13.9612H13.9203H13.8797H13.8394H13.7994H13.7597H13.7204H13.6814H13.6427H13.6043H13.5663H13.5285H13.4912H13.4541H13.4174H13.381H13.3449H13.3092H13.2738H13.2388H13.2041H13.1698H13.1358H13.1022H13.0689H13.0359H13.0033H12.9711H12.9393H12.9078H12.8766H12.8458H12.8154H12.7854H12.7557H12.7264H12.6975H12.6689H12.6407H12.6129H12.5855H12.5585H12.5318H12.5056H12.4797H12.4542H12.4291H12.4044H12.3801H12.3562H12.3327H12.3096H12.2869H12.2646H12.2427H12.2212H12.2001H12.1795H12.1592H12.1394H12.1199H12.1009H12.0824H12.0642H12.0465H12.0292H12.0123H11.9959H11.9798H11.9643H11.9491H11.9344H11.9201H11.9063H11.8929H11.88H11.8675H11.8554H11.8438H11.8327H11.822H11.8118H11.802H11.7927H11.7838H11.7754H11.7675H11.76H11.753H11.7465H11.7404H11.7349H11.7298H11.7251H11.721H11.7173H11.7141H11.7114H11.7092H11.7075H11.7063H11.7055Z" stroke="black" stroke-opacity="0.2" stroke-width="3"/>
<path d="M37.7766 3.41998V17.5053C37.7766 18.5761 38.6387 19.4382 39.7095 19.4382H53.6886C53.3734 18.8016 52.9177 18.1313 52.2918 17.5053L39.7285 4.94204C39.1201 4.17214 38.4434 3.70609 37.7956 3.42071L37.7766 3.41998Z" fill="white"/>
<path d="M39.7096 22.3375C37.0375 22.3375 34.8774 20.1772 34.8774 17.5053V2.99976L35.8656 3.01515C36.9274 3.01515 37.7767 3.41998 37.7767 3.41998V17.5053C37.7767 18.5761 38.6387 19.4382 39.7096 19.4382H53.6886C53.6886 19.4382 54.2274 20.4105 54.2274 21.3769V22.3375H39.7096Z" fill="#CCCCCC"/>
<mask id="path-5-outside-1_15_1589" maskUnits="userSpaceOnUse" x="15" y="20" width="35" height="34" fill="black">
<rect fill="white" x="15" y="20" width="35" height="34"/>
<path d="M26.6059 39.676C27.6025 37.7227 28.735 35.5222 29.6415 33.3126L29.9999 32.4404C28.8159 27.9348 28.1059 24.3181 28.7402 21.9796C28.9109 21.3699 29.6171 21 30.3721 21L30.8321 21.0068H30.9166C31.9502 20.9909 32.4368 22.3057 32.4921 22.8169C32.5833 23.6683 32.1894 25.1091 32.1894 25.1091C32.1894 24.5273 32.2121 23.5871 31.845 22.7758C31.4175 21.8371 31.0092 21.2763 30.6431 21.1874C30.4583 21.3109 30.2787 21.5665 30.2171 22.0583C30.0897 22.7478 30.0514 23.6181 30.0514 24.0668C30.0514 25.6519 30.3636 27.7441 30.9769 29.901C31.0926 29.567 31.1944 29.2462 31.2754 28.9456C31.4012 28.4718 32.2008 25.3312 32.2008 25.3312C32.2008 25.3312 31.9993 29.5118 31.7178 30.7768C31.6575 31.0441 31.591 31.3085 31.5217 31.5791C32.5331 34.4051 34.1629 36.9272 36.1071 38.7426C36.8736 39.459 37.8418 40.0366 38.7581 40.5631C40.7591 40.2772 42.6015 40.1422 44.1383 40.1592C46.1775 40.186 47.6744 40.4877 48.2804 41.0847C48.5772 41.3749 48.6976 41.7254 48.735 42.1183C48.7437 42.2711 48.6695 42.6303 48.6476 42.7204C48.6695 42.6113 48.6695 42.0748 47.0325 41.5522C45.7432 41.1401 43.3304 41.1529 40.4352 41.4611C43.784 43.0995 47.0465 43.9135 48.0806 43.4255C48.3333 43.3023 48.6399 42.8823 48.6399 42.8823C48.6399 42.8823 48.4577 43.7103 48.3268 43.9173C48.1598 44.1422 47.8322 44.3858 47.5216 44.4679C45.8888 44.9036 41.6383 43.8955 37.9328 41.7782C33.793 42.3879 29.2465 43.5142 25.6018 44.7096C22.0205 50.986 19.3281 53.8683 17.1378 52.7719L16.3325 52.3669C16.0052 52.1797 15.9552 51.7239 16.0309 51.3527C16.2863 50.1033 17.853 48.2215 20.9999 46.3425C21.3387 46.1375 22.8476 45.3397 22.8476 45.3397C22.8476 45.3397 21.7305 46.4209 21.4688 46.6331C18.957 48.6914 17.103 51.2812 17.1495 52.2851L17.1585 52.3726C19.2923 52.0686 22.4919 47.7256 26.6057 39.6766L26.6059 39.676ZM27.9093 40.3441C27.2222 41.6381 26.5506 42.8379 25.9306 43.9396C29.3604 42.5026 33.0517 41.583 36.566 40.9297C36.0937 40.6036 35.6353 40.2583 35.2039 39.8933C33.2688 38.255 31.7935 36.211 30.7239 34.0602C30.0457 35.8874 29.2393 37.8289 27.9093 40.3442"/>
</mask>
<path d="M26.6059 39.676C27.6025 37.7227 28.735 35.5222 29.6415 33.3126L29.9999 32.4404C28.8159 27.9348 28.1059 24.3181 28.7402 21.9796C28.9109 21.3699 29.6171 21 30.3721 21L30.8321 21.0068H30.9166C31.9502 20.9909 32.4368 22.3057 32.4921 22.8169C32.5833 23.6683 32.1894 25.1091 32.1894 25.1091C32.1894 24.5273 32.2121 23.5871 31.845 22.7758C31.4175 21.8371 31.0092 21.2763 30.6431 21.1874C30.4583 21.3109 30.2787 21.5665 30.2171 22.0583C30.0897 22.7478 30.0514 23.6181 30.0514 24.0668C30.0514 25.6519 30.3636 27.7441 30.9769 29.901C31.0926 29.567 31.1944 29.2462 31.2754 28.9456C31.4012 28.4718 32.2008 25.3312 32.2008 25.3312C32.2008 25.3312 31.9993 29.5118 31.7178 30.7768C31.6575 31.0441 31.591 31.3085 31.5217 31.5791C32.5331 34.4051 34.1629 36.9272 36.1071 38.7426C36.8736 39.459 37.8418 40.0366 38.7581 40.5631C40.7591 40.2772 42.6015 40.1422 44.1383 40.1592C46.1775 40.186 47.6744 40.4877 48.2804 41.0847C48.5772 41.3749 48.6976 41.7254 48.735 42.1183C48.7437 42.2711 48.6695 42.6303 48.6476 42.7204C48.6695 42.6113 48.6695 42.0748 47.0325 41.5522C45.7432 41.1401 43.3304 41.1529 40.4352 41.4611C43.784 43.0995 47.0465 43.9135 48.0806 43.4255C48.3333 43.3023 48.6399 42.8823 48.6399 42.8823C48.6399 42.8823 48.4577 43.7103 48.3268 43.9173C48.1598 44.1422 47.8322 44.3858 47.5216 44.4679C45.8888 44.9036 41.6383 43.8955 37.9328 41.7782C33.793 42.3879 29.2465 43.5142 25.6018 44.7096C22.0205 50.986 19.3281 53.8683 17.1378 52.7719L16.3325 52.3669C16.0052 52.1797 15.9552 51.7239 16.0309 51.3527C16.2863 50.1033 17.853 48.2215 20.9999 46.3425C21.3387 46.1375 22.8476 45.3397 22.8476 45.3397C22.8476 45.3397 21.7305 46.4209 21.4688 46.6331C18.957 48.6914 17.103 51.2812 17.1495 52.2851L17.1585 52.3726C19.2923 52.0686 22.4919 47.7256 26.6057 39.6766L26.6059 39.676ZM27.9093 40.3441C27.2222 41.6381 26.5506 42.8379 25.9306 43.9396C29.3604 42.5026 33.0517 41.583 36.566 40.9297C36.0937 40.6036 35.6353 40.2583 35.2039 39.8933C33.2688 38.255 31.7935 36.211 30.7239 34.0602C30.0457 35.8874 29.2393 37.8289 27.9093 40.3442" fill="#666666"/>
<path d="M26.6059 39.676L26.1605 39.4487L26.1539 39.4618L26.148 39.4752L26.6059 39.676ZM29.6415 33.3126L29.179 33.1226L29.1789 33.1228L29.6415 33.3126ZM29.9999 32.4404L30.4624 32.6305L30.5261 32.4755L30.4835 32.3134L29.9999 32.4404ZM28.7402 21.9796L28.2587 21.8448L28.2576 21.8487L28.7402 21.9796ZM30.3721 21L30.3795 20.5H30.3721V21ZM30.8321 21.0068L30.8247 21.5068H30.8321V21.0068ZM30.9166 21.0068V21.5069L30.9242 21.5067L30.9166 21.0068ZM32.4921 22.8169L32.9892 22.7637L32.9892 22.7632L32.4921 22.8169ZM32.1894 25.1091H31.6894L32.6717 25.241L32.1894 25.1091ZM31.845 22.7758L32.3005 22.5697L32.3 22.5686L31.845 22.7758ZM30.6431 21.1874L30.7611 20.7016L30.5479 20.6498L30.3654 20.7716L30.6431 21.1874ZM30.2171 22.0583L30.7088 22.1492L30.7114 22.1349L30.7132 22.1204L30.2171 22.0583ZM30.9769 29.901L30.496 30.0377L30.93 31.5638L31.4494 30.0646L30.9769 29.901ZM31.2754 28.9456L31.7582 29.0756L31.7586 29.0739L31.2754 28.9456ZM32.2008 25.3312L32.7002 25.3553L31.7162 25.2078L32.2008 25.3312ZM31.7178 30.7768L32.2055 30.8869L32.2059 30.8854L31.7178 30.7768ZM31.5217 31.5791L31.0373 31.4551L30.9993 31.6034L31.0509 31.7476L31.5217 31.5791ZM36.1071 38.7426L36.4485 38.3773L36.4483 38.3771L36.1071 38.7426ZM38.7581 40.5631L38.509 40.9967L38.6583 41.0825L38.8288 41.0581L38.7581 40.5631ZM44.1383 40.1592L44.1449 39.6592L44.1439 39.6592L44.1383 40.1592ZM48.2804 41.0847L47.9295 41.4409L47.9308 41.4422L48.2804 41.0847ZM48.735 42.1183L49.2342 42.0899L49.2337 42.0804L49.2328 42.0709L48.735 42.1183ZM48.6476 42.7204L48.1574 42.6219L49.1335 42.8382L48.6476 42.7204ZM47.0325 41.5522L46.8802 42.0285L46.8804 42.0286L47.0325 41.5522ZM40.4352 41.4611L40.3823 40.9639L38.6566 41.1476L40.2154 41.9102L40.4352 41.4611ZM48.0806 43.4255L48.294 43.8777L48.2996 43.875L48.0806 43.4255ZM48.6399 42.8823L49.1283 42.9897L48.2361 42.5875L48.6399 42.8823ZM48.3268 43.9173L48.7282 44.2154L48.7394 44.2003L48.7495 44.1845L48.3268 43.9173ZM47.5216 44.4679L47.3938 43.9845L47.3927 43.9848L47.5216 44.4679ZM37.9328 41.7782L38.1808 41.3441L38.0308 41.2584L37.8599 41.2835L37.9328 41.7782ZM25.6018 44.7096L25.446 44.2345L25.263 44.2945L25.1676 44.4618L25.6018 44.7096ZM17.1378 52.7719L16.9132 53.2186L16.914 53.219L17.1378 52.7719ZM16.3325 52.3669L16.0843 52.8009L16.0959 52.8076L16.1079 52.8136L16.3325 52.3669ZM16.0309 51.3527L15.541 51.2526L15.541 51.2528L16.0309 51.3527ZM20.9999 46.3425L21.2563 46.7718L21.2588 46.7703L20.9999 46.3425ZM22.8476 45.3397L23.1953 45.699L22.6139 44.8977L22.8476 45.3397ZM21.4688 46.6331L21.1539 46.2447L21.1519 46.2463L21.4688 46.6331ZM17.1495 52.2851L16.65 52.3082L16.6507 52.3225L16.6521 52.3366L17.1495 52.2851ZM17.1585 52.3726L16.6612 52.4242L16.7148 52.9409L17.2291 52.8676L17.1585 52.3726ZM26.6057 39.6766L27.0509 39.9041L27.0576 39.8909L27.0636 39.8774L26.6057 39.6766ZM25.9306 43.9396L25.4949 43.6943L24.7805 44.9635L26.1238 44.4007L25.9306 43.9396ZM36.566 40.9297L36.6574 41.4213L37.8396 41.2015L36.8501 40.5183L36.566 40.9297ZM35.2039 39.8933L34.8808 40.2749L34.8809 40.275L35.2039 39.8933ZM30.7239 34.0602L31.1716 33.8376L30.6572 32.8031L30.2552 33.8862L30.7239 34.0602ZM27.0513 39.9032C28.0454 37.9546 29.1882 35.7347 30.1041 33.5024L29.1789 33.1228C28.2818 35.3096 27.1595 37.4908 26.1605 39.4487L27.0513 39.9032ZM30.104 33.5027L30.4624 32.6305L29.5375 32.2504L29.179 33.1226L30.104 33.5027ZM30.4835 32.3134C29.8926 30.0648 29.4253 28.0574 29.1834 26.328C28.9403 24.5912 28.9321 23.1822 29.2227 22.1105L28.2576 21.8487C27.914 23.1155 27.9436 24.6841 28.193 26.4666C28.4435 28.2566 28.9232 30.3104 29.5163 32.5675L30.4835 32.3134ZM29.2217 22.1145C29.3061 21.8131 29.728 21.5 30.3721 21.5V20.5C29.5061 20.5 28.5158 20.9268 28.2587 21.8448L29.2217 22.1145ZM30.3647 21.4999L30.8247 21.5067L30.8395 20.5069L30.3795 20.5001L30.3647 21.4999ZM30.8321 21.5068H30.9166V20.5068H30.8321V21.5068ZM30.9242 21.5067C31.1977 21.5025 31.4416 21.6679 31.6539 21.9896C31.8667 22.3122 31.9757 22.6924 31.995 22.8707L32.9892 22.7632C32.9532 22.4303 32.7912 21.8975 32.4885 21.4388C32.1853 20.9793 31.669 20.4952 30.9089 20.5069L30.9242 21.5067ZM31.9949 22.8702C32.0321 23.2174 31.9697 23.7281 31.8834 24.1906C31.8418 24.4137 31.7973 24.6119 31.7633 24.7543C31.7463 24.8254 31.7319 24.8821 31.722 24.9206C31.717 24.9399 31.7132 24.9546 31.7106 24.9642C31.7093 24.969 31.7084 24.9725 31.7078 24.9747C31.7075 24.9758 31.7073 24.9766 31.7072 24.977C31.7071 24.9772 31.7071 24.9774 31.7071 24.9774C31.7071 24.9774 31.7071 24.9774 31.7071 24.9774C31.7071 24.9774 31.7071 24.9774 31.7071 24.9773C31.7071 24.9773 31.7071 24.9773 32.1894 25.1091C32.6717 25.241 32.6717 25.2409 32.6717 25.2408C32.6718 25.2408 32.6718 25.2407 32.6718 25.2407C32.6718 25.2406 32.6719 25.2404 32.6719 25.2403C32.672 25.24 32.6721 25.2396 32.6722 25.2391C32.6725 25.2381 32.6728 25.2368 32.6733 25.2352C32.6742 25.2319 32.6754 25.2272 32.677 25.2213C32.6802 25.2093 32.6847 25.1922 32.6903 25.1704C32.7016 25.1268 32.7173 25.0644 32.7358 24.987C32.7727 24.8326 32.821 24.6175 32.8665 24.374C32.9543 23.9032 33.0432 23.2678 32.9892 22.7637L31.9949 22.8702ZM32.6894 25.1091C32.6894 24.5548 32.7205 23.4979 32.3005 22.5697L31.3894 22.982C31.7037 23.6764 31.6894 24.4998 31.6894 25.1091H32.6894ZM32.3 22.5686C32.0791 22.0834 31.8529 21.6724 31.6212 21.3632C31.4029 21.0718 31.12 20.7887 30.7611 20.7016L30.5251 21.6733C30.5215 21.6724 30.5487 21.6785 30.6066 21.7264C30.6637 21.7737 30.7359 21.8493 30.8209 21.9627C30.9917 22.1908 31.1834 22.5296 31.3899 22.9831L32.3 22.5686ZM30.3654 20.7716C30.0258 20.9985 29.7948 21.4068 29.721 21.9962L30.7132 22.1204C30.7626 21.7262 30.8908 21.6233 30.9208 21.6032L30.3654 20.7716ZM29.7254 21.9674C29.5902 22.699 29.5514 23.6031 29.5514 24.0668H30.5514C30.5514 23.6332 30.5891 22.7966 30.7088 22.1492L29.7254 21.9674ZM29.5514 24.0668C29.5514 25.7085 29.8732 27.8476 30.496 30.0377L31.4578 29.7642C30.854 27.6406 30.5514 25.5953 30.5514 24.0668H29.5514ZM31.4494 30.0646C31.5676 29.7235 31.6733 29.3909 31.7582 29.0756L30.7926 28.8155C30.7156 29.1015 30.6176 29.4106 30.5045 29.7373L31.4494 30.0646ZM31.7586 29.0739C31.8223 28.834 32.0545 27.9271 32.2697 27.0844C32.3775 26.6621 32.4814 26.2547 32.5584 25.9528C32.5968 25.8019 32.6286 25.6773 32.6507 25.5905C32.6617 25.5471 32.6704 25.5131 32.6763 25.49C32.6792 25.4784 32.6815 25.4696 32.683 25.4636C32.6838 25.4606 32.6843 25.4584 32.6847 25.4568C32.6849 25.4561 32.685 25.4555 32.6851 25.4551C32.6852 25.4549 32.6852 25.4548 32.6853 25.4547C32.6853 25.4547 32.6853 25.4546 32.6853 25.4546C32.6853 25.4546 32.6853 25.4546 32.2008 25.3312C31.7162 25.2078 31.7162 25.2078 31.7162 25.2079C31.7162 25.2079 31.7162 25.2079 31.7162 25.208C31.7161 25.2081 31.7161 25.2082 31.7161 25.2084C31.716 25.2088 31.7158 25.2094 31.7156 25.2101C31.7152 25.2116 31.7147 25.2139 31.7139 25.2168C31.7124 25.2228 31.7101 25.2316 31.7072 25.2432C31.7013 25.2663 31.6927 25.3003 31.6816 25.3437C31.6595 25.4304 31.6278 25.5549 31.5893 25.7058C31.5124 26.0076 31.4086 26.4149 31.3008 26.837C31.0847 27.683 30.8542 28.5833 30.7921 28.8173L31.7586 29.0739ZM32.2008 25.3312C31.7013 25.3071 31.7013 25.3071 31.7013 25.3072C31.7013 25.3072 31.7013 25.3072 31.7013 25.3073C31.7013 25.3074 31.7013 25.3076 31.7013 25.3078C31.7013 25.3083 31.7012 25.309 31.7012 25.31C31.7011 25.3119 31.701 25.3148 31.7008 25.3187C31.7004 25.3265 31.6998 25.3382 31.699 25.3535C31.6975 25.3841 31.6952 25.4293 31.6922 25.4874C31.6862 25.6035 31.6773 25.771 31.6657 25.9759C31.6425 26.386 31.6086 26.9456 31.5661 27.5442C31.4797 28.7595 31.3607 30.0796 31.2297 30.6683L32.2059 30.8854C32.3564 30.209 32.4789 28.8063 32.5636 27.6151C32.6066 27.0104 32.6407 26.4457 32.6641 26.0324C32.6758 25.8257 32.6848 25.6567 32.6909 25.5392C32.6939 25.4805 32.6962 25.4346 32.6978 25.4034C32.6986 25.3878 32.6992 25.3758 32.6996 25.3677C32.6998 25.3637 32.6999 25.3606 32.7 25.3585C32.7001 25.3575 32.7001 25.3567 32.7001 25.3561C32.7001 25.3559 32.7002 25.3557 32.7002 25.3555C32.7002 25.3554 32.7002 25.3554 32.7002 25.3553C32.7002 25.3553 32.7002 25.3553 32.2008 25.3312ZM31.2301 30.6668C31.1714 30.9267 31.1064 31.1852 31.0373 31.4551L32.006 31.7031C32.0755 31.4318 32.1435 31.1616 32.2055 30.8869L31.2301 30.6668ZM31.0509 31.7476C32.0866 34.6413 33.7579 37.2332 35.7659 39.108L36.4483 38.3771C34.5678 36.6213 32.9796 34.169 31.9924 31.4106L31.0509 31.7476ZM35.7657 39.1079C36.5798 39.8688 37.5959 40.472 38.509 40.9967L39.0072 40.1296C38.0877 39.6013 37.1674 39.0492 36.4485 38.3773L35.7657 39.1079ZM38.8288 41.0581C40.8109 40.7749 42.6272 40.6425 44.1328 40.6592L44.1439 39.6592C42.5759 39.6419 40.7072 39.7795 38.6873 40.0682L38.8288 41.0581ZM44.1317 40.6591C45.1319 40.6723 45.9798 40.7529 46.6405 40.8967C47.3177 41.0441 47.7292 41.2435 47.9295 41.4409L48.6313 40.7286C48.2256 40.3289 47.5856 40.079 46.8531 39.9196C46.1041 39.7565 45.184 39.6729 44.1449 39.6592L44.1317 40.6591ZM47.9308 41.4422C48.1186 41.6259 48.2073 41.8511 48.2372 42.1657L49.2328 42.0709C49.1879 41.5997 49.0357 41.124 48.63 40.7272L47.9308 41.4422ZM48.2358 42.1467C48.2356 42.1434 48.2362 42.162 48.2309 42.2108C48.2263 42.2542 48.2188 42.3058 48.2097 42.36C48.1912 42.4697 48.1695 42.5703 48.1617 42.6027L49.1335 42.8382C49.1475 42.7804 49.1739 42.6564 49.1958 42.5258C49.2151 42.4114 49.2422 42.2303 49.2342 42.0899L48.2358 42.1467ZM49.1378 42.8189C49.1831 42.5936 49.1306 42.2698 48.8251 41.9475C48.5398 41.6463 48.0387 41.3485 47.1845 41.0759L46.8804 42.0286C47.6633 42.2784 47.9807 42.5102 48.0992 42.6352C48.1976 42.7391 48.1341 42.7382 48.1574 42.6219L49.1378 42.8189ZM47.1847 41.076C46.4677 40.8468 45.4822 40.7465 44.3404 40.7366C43.1891 40.7266 41.842 40.8085 40.3823 40.9639L40.4881 41.9583C41.9235 41.8055 43.2304 41.727 44.3317 41.7365C45.4424 41.7462 46.308 41.8455 46.8802 42.0285L47.1847 41.076ZM40.2154 41.9102C41.9154 42.7419 43.6005 43.3681 45.0025 43.7252C45.7027 43.9036 46.3439 44.0178 46.8877 44.0538C47.4137 44.0885 47.917 44.0556 48.294 43.8777L47.8672 42.9733C47.727 43.0395 47.4348 43.0877 46.9536 43.0559C46.4902 43.0253 45.9125 42.9251 45.2493 42.7562C43.9244 42.4187 42.3038 41.8187 40.6549 41.012L40.2154 41.9102ZM48.2996 43.875C48.5215 43.7669 48.7173 43.5639 48.8269 43.442C48.8897 43.3721 48.9428 43.3074 48.9801 43.2601C48.999 43.2364 49.0141 43.2166 49.0249 43.2024C49.0303 43.1952 49.0347 43.1894 49.0378 43.1851C49.0394 43.183 49.0407 43.1812 49.0417 43.1799C49.0422 43.1792 49.0426 43.1786 49.043 43.1782C49.0432 43.1779 49.0433 43.1777 49.0435 43.1775C49.0435 43.1774 49.0436 43.1773 49.0436 43.1773C49.0437 43.1772 49.0437 43.1772 49.0437 43.1772C49.0438 43.1771 49.0438 43.177 48.6399 42.8823C48.2361 42.5875 48.2361 42.5874 48.2361 42.5874C48.2362 42.5874 48.2362 42.5873 48.2362 42.5873C48.2363 42.5873 48.2363 42.5872 48.2363 42.5872C48.2364 42.5871 48.2364 42.587 48.2364 42.587C48.2365 42.5869 48.2365 42.5869 48.2364 42.5871C48.2362 42.5873 48.2358 42.5879 48.235 42.5889C48.2336 42.5908 48.2311 42.5942 48.2276 42.5988C48.2207 42.608 48.2099 42.622 48.196 42.6395C48.168 42.6749 48.1286 42.7229 48.0832 42.7734C48.0371 42.8247 47.9891 42.8738 47.9439 42.9137C47.9215 42.9334 47.9023 42.9487 47.8865 42.96C47.8788 42.9655 47.8726 42.9695 47.8681 42.9723C47.8635 42.9751 47.8613 42.9761 47.8615 42.976L48.2996 43.875ZM48.6399 42.8823C48.1516 42.7748 48.1516 42.7748 48.1516 42.7748C48.1516 42.7748 48.1516 42.7747 48.1516 42.7747C48.1516 42.7747 48.1516 42.7747 48.1516 42.7748C48.1516 42.7748 48.1516 42.7749 48.1516 42.775C48.1515 42.7753 48.1514 42.7757 48.1513 42.7764C48.151 42.7777 48.1505 42.7798 48.1499 42.7826C48.1487 42.7881 48.1468 42.7965 48.1443 42.8074C48.1393 42.8292 48.132 42.8609 48.1229 42.8998C48.1044 42.9777 48.0787 43.083 48.0492 43.1937C48.0195 43.3054 47.9875 43.4174 47.9565 43.5105C47.9207 43.6183 47.9008 43.6556 47.9042 43.6501L48.7495 44.1845C48.8183 44.0755 48.8703 43.9317 48.9054 43.826C48.9454 43.7056 48.9835 43.5718 49.0157 43.4506C49.0482 43.3285 49.0762 43.2138 49.096 43.13C49.1059 43.088 49.1139 43.0534 49.1194 43.0291C49.1222 43.0169 49.1243 43.0074 49.1258 43.0007C49.1266 42.9973 49.1271 42.9947 49.1276 42.9929C49.1278 42.992 49.1279 42.9913 49.128 42.9907C49.1281 42.9905 49.1281 42.9903 49.1282 42.9901C49.1282 42.99 49.1282 42.9899 49.1282 42.9899C49.1282 42.9899 49.1282 42.9898 49.1282 42.9898C49.1282 42.9898 49.1283 42.9897 48.6399 42.8823ZM47.9254 43.6192C47.819 43.7625 47.584 43.9342 47.3938 43.9845L47.6494 44.9513C48.0805 44.8373 48.5007 44.5218 48.7282 44.2154L47.9254 43.6192ZM47.3927 43.9848C47.0687 44.0713 46.5657 44.0955 45.9037 44.0315C45.251 43.9684 44.4784 43.8231 43.6335 43.5974C41.9433 43.1457 39.9946 42.3804 38.1808 41.3441L37.6847 42.2123C39.5765 43.2933 41.6057 44.0906 43.3754 44.5635C44.2604 44.7999 45.0882 44.9573 45.8075 45.0269C46.5175 45.0955 47.1582 45.0824 47.6505 44.951L47.3927 43.9848ZM37.8599 41.2835C33.6892 41.8978 29.1149 43.0312 25.446 44.2345L25.7577 45.1847C29.3781 43.9973 33.8968 42.878 38.0056 42.2729L37.8599 41.2835ZM25.1676 44.4618C23.3806 47.5935 21.8403 49.8318 20.498 51.1486C19.1391 52.4818 18.1521 52.7205 17.3616 52.3248L16.914 53.219C18.3138 53.9197 19.7681 53.2655 21.1983 51.8625C22.6452 50.4431 24.2417 48.1021 26.0361 44.9574L25.1676 44.4618ZM17.3624 52.3252L16.5571 51.9202L16.1079 52.8136L16.9132 53.2186L17.3624 52.3252ZM16.5808 51.9329C16.5712 51.9274 16.5392 51.9061 16.5168 51.8125C16.4937 51.7156 16.4939 51.5848 16.5208 51.4527L15.541 51.2528C15.4922 51.4919 15.4795 51.7745 15.5443 52.0451C15.6098 52.319 15.7665 52.6192 16.0843 52.8009L16.5808 51.9329ZM16.5208 51.4529C16.6216 50.9594 17.0061 50.2585 17.7939 49.4278C18.5726 48.6065 19.7125 47.6935 21.2563 46.7718L20.7436 45.9132C19.1404 46.8705 17.9234 47.8379 17.0683 48.7397C16.2221 49.6319 15.6956 50.4966 15.541 51.2526L16.5208 51.4529ZM21.2588 46.7703C21.4143 46.6762 21.8619 46.433 22.2871 46.2049C22.4962 46.0927 22.6948 45.9869 22.8412 45.9091C22.9143 45.8702 22.9744 45.8383 23.0162 45.8162C23.0371 45.8051 23.0534 45.7965 23.0644 45.7907C23.07 45.7877 23.0742 45.7855 23.077 45.784C23.0784 45.7832 23.0795 45.7827 23.0802 45.7823C23.0806 45.7821 23.0808 45.782 23.081 45.7819C23.0811 45.7818 23.0812 45.7818 23.0812 45.7818C23.0812 45.7818 23.0812 45.7818 23.0813 45.7818C23.0813 45.7818 23.0813 45.7817 22.8476 45.3397C22.6139 44.8977 22.6138 44.8977 22.6138 44.8977C22.6138 44.8977 22.6138 44.8977 22.6138 44.8978C22.6137 44.8978 22.6136 44.8978 22.6136 44.8979C22.6134 44.898 22.6131 44.8981 22.6127 44.8983C22.612 44.8987 22.6109 44.8993 22.6094 44.9001C22.6065 44.9016 22.6022 44.9039 22.5966 44.9068C22.5854 44.9128 22.569 44.9215 22.5479 44.9326C22.5059 44.9549 22.4454 44.987 22.3718 45.0261C22.2247 45.1043 22.0249 45.2107 21.8144 45.3236C21.4005 45.5457 20.9243 45.8038 20.7411 45.9147L21.2588 46.7703ZM22.8476 45.3397C22.4998 44.9804 22.4998 44.9805 22.4998 44.9805C22.4998 44.9805 22.4998 44.9805 22.4998 44.9805C22.4998 44.9805 22.4997 44.9806 22.4997 44.9806C22.4995 44.9807 22.4993 44.9809 22.4991 44.9812C22.4986 44.9817 22.4978 44.9824 22.4967 44.9835C22.4946 44.9855 22.4915 44.9885 22.4874 44.9924C22.4793 45.0003 22.4672 45.012 22.4518 45.0269C22.4209 45.0567 22.3765 45.0995 22.3223 45.1516C22.2139 45.2559 22.0668 45.397 21.9117 45.5446C21.5921 45.8487 21.2653 46.1543 21.1539 46.2447L21.7837 47.0215C21.934 46.8996 22.2966 46.5586 22.601 46.2691C22.7578 46.1198 22.9063 45.9774 23.0156 45.8723C23.0702 45.8198 23.1151 45.7765 23.1463 45.7463C23.1619 45.7313 23.1741 45.7195 23.1825 45.7114C23.1866 45.7074 23.1898 45.7043 23.192 45.7022C23.193 45.7012 23.1939 45.7004 23.1944 45.6998C23.1947 45.6996 23.1949 45.6994 23.1951 45.6992C23.1951 45.6992 23.1952 45.6991 23.1952 45.6991C23.1952 45.6991 23.1953 45.699 23.1953 45.699C23.1953 45.699 23.1953 45.699 22.8476 45.3397ZM21.1519 46.2463C19.8657 47.3003 18.7461 48.4914 17.9496 49.5548C17.5516 50.086 17.2276 50.5945 17.0036 51.0456C16.7891 51.478 16.6322 51.9242 16.65 52.3082L17.6489 52.262C17.6435 52.144 17.7009 51.8901 17.8994 51.4902C18.0885 51.1091 18.3762 50.6532 18.7499 50.1543C19.4968 49.1572 20.5601 48.0242 21.7857 47.0198L21.1519 46.2463ZM16.6521 52.3366L16.6612 52.4242L17.6559 52.3211L17.6468 52.2336L16.6521 52.3366ZM17.2291 52.8676C17.9009 52.7719 18.5891 52.3723 19.2838 51.7703C19.9859 51.1619 20.7389 50.3077 21.5411 49.227C23.1461 47.0646 24.989 43.9384 27.0509 39.9041L26.1604 39.449C24.1086 43.4637 22.2948 46.5336 20.7381 48.631C19.9594 49.6801 19.2554 50.4717 18.6289 51.0146C17.9949 51.564 17.483 51.8213 17.088 51.8776L17.2291 52.8676ZM27.0636 39.8774L27.0638 39.8767L26.148 39.4752L26.1477 39.4758L27.0636 39.8774ZM27.4677 40.1096C26.7837 41.3979 26.1146 42.5931 25.4949 43.6943L26.3663 44.1848C26.9866 43.0827 27.6608 41.8784 28.3509 40.5786L27.4677 40.1096ZM26.1238 44.4007C29.5084 42.9827 33.1616 42.0711 36.6574 41.4213L36.4746 40.4382C32.9419 41.0949 29.2125 42.0225 25.7374 43.4784L26.1238 44.4007ZM36.8501 40.5183C36.389 40.1999 35.9438 39.8644 35.5269 39.5116L34.8809 40.275C35.3268 40.6522 35.7985 41.0074 36.2819 41.3412L36.8501 40.5183ZM35.527 39.5117C33.6525 37.9247 32.2164 35.9386 31.1716 33.8376L30.2762 34.2829C31.3706 36.4835 32.8851 38.5852 34.8808 40.2749L35.527 39.5117ZM30.2552 33.8862C29.5831 35.697 28.7852 37.618 27.4673 40.1105L28.3513 40.5779C29.6933 38.0399 30.5084 36.0778 31.1927 34.2342L30.2552 33.8862Z" fill="#666666" mask="url(#path-5-outside-1_15_1589)"/>
</svg>
