<svg width="64" height="64" viewBox="0 0 64 64" fill="none" xmlns="http://www.w3.org/2000/svg">
<path d="M9.77246 4.94851C9.77246 3.88104 10.6378 3.01569 11.7053 3.01569C11.7053 3.01569 33.3621 3.01569 35.8655 3.01569C37.9717 3.01569 39.2701 4.38377 39.6292 4.81795C39.6996 4.90313 39.7705 4.9878 39.8486 5.06596L52.2895 17.5069C52.2928 17.5102 52.2957 17.513 52.299 17.5163C52.4015 17.6189 54.2273 19.4718 54.2273 21.3775C54.2273 23.3382 54.2273 59.0675 54.2273 59.0675C54.2273 60.1349 53.362 61.0003 52.2945 61.0003H11.7053C10.6378 61.0003 9.77246 60.1349 9.77246 59.0675V4.94851Z" fill="white"/>
<path d="M11.7055 1.51569C11.7054 1.51569 11.7053 1.51569 11.7053 3.01569V1.51569C9.80939 1.51569 8.27246 3.05262 8.27246 4.94851V59.0675C8.27246 60.9634 9.80938 62.5003 11.7053 62.5003H52.2945C54.1904 62.5003 55.7273 60.9634 55.7273 59.0675H54.2273C55.7273 59.0675 55.7273 59.0673 55.7273 59.0671V59.0658V59.0638V59.061V59.0573V59.0529V59.0476V59.0416V59.0347V59.0271V59.0187V59.0095V58.9995V58.9887V58.9772V58.9649V58.9518V58.938V58.9234V58.9081V58.8919V58.8751V58.8575V58.8391V58.82V58.8002V58.7796V58.7583V58.7362V58.7134V58.6899V58.6657V58.6408V58.6151V58.5888V58.5617V58.5339V58.5054V58.4763V58.4464V58.4158V58.3845V58.3526V58.32V58.2867V58.2527V58.218V58.1827V58.1466V58.11V58.0726V58.0346V57.996V57.9567V57.9167V57.8761V57.8349V57.793V57.7505V57.7073V57.6635V57.6191V57.5741V57.5284V57.4821V57.4352V57.3877V57.3396V57.2908V57.2415V57.1916V57.1411V57.0899V57.0382V56.9859V56.933V56.8796V56.8255V56.7709V56.7157V56.6599V56.6036V56.5467V56.4893V56.4312V56.3727V56.3136V56.2539V56.1937V56.1329V56.0717V56.0098V55.9475V55.8846V55.8212V55.7573V55.6928V55.6278V55.5624V55.4964V55.4299V55.3629V55.2954V55.2274V55.1589V55.0899V55.0204V54.9505V54.88V54.8091V54.7377V54.6658V54.5935V54.5207V54.4474V54.3737V54.2995V54.2249V54.1498V54.0742V53.9982V53.9218V53.8449V53.7676V53.6899V53.6117V53.5331V53.4541V53.3747V53.2948V53.2146V53.1339V53.0528V52.9713V52.8895V52.8072V52.7245V52.6414V52.5579V52.4741V52.3899V52.3052V52.2203V52.1349V52.0492V51.9631V51.8766V51.7898V51.7026V51.615V51.5271V51.4389V51.3503V51.2614V51.1721V51.0825V50.9926V50.9023V50.8117V50.7208V50.6296V50.538V50.4462V50.354V50.2615V50.1687V50.0756V49.9822V49.8885V49.7945V49.7003V49.6057V49.5108V49.4157V49.3203V49.2247V49.1287V49.0325V48.936V48.8393V48.7423V48.645V48.5475V48.4498V48.3518V48.2535V48.155V48.0563V47.9574V47.8582V47.7588V47.6591V47.5593V47.4592V47.3589V47.2584V47.1577V47.0567V46.9556V46.8543V46.7528V46.6511V46.5492V46.4471V46.3448V46.2424V46.1397V46.0369V45.934V45.8308V45.7275V45.624V45.5204V45.4166V45.3127V45.2086V45.1043V45V44.8954V44.7908V44.686V44.5811V44.476V44.3708V44.2655V44.1601V44.0546V43.9489V43.8432V43.7373V43.6313V43.5253V43.4191V43.3129V43.2065V43.1001V42.9936V42.887V42.7803V42.6735V42.5667V42.4598V42.3528V42.2458V42.1387V42.0316V41.9244V41.8172V41.7099V41.6025V41.4951V41.3877V41.2803V41.1728V41.0653V40.9578V40.8502V40.7426V40.635V40.5274V40.4198V40.3122V40.2045V40.0969V39.9893V39.8817V39.7741V39.6665V39.5589V39.4513V39.3438V39.2362V39.1287V39.0213V38.9138V38.8065V38.6991V38.5918V38.4845V38.3773V38.2701V38.163V38.056V37.949V37.8421V37.7352V37.6284V37.5217V37.4151V37.3085V37.202V37.0957V36.9894V36.8832V36.777V36.671V36.5651V36.4593V36.3536V36.248V36.1426V36.0372V35.932V35.8269V35.7219V35.617V35.5123V35.4077V35.3033V35.199V35.0948V34.9908V34.887V34.7833V34.6797V34.5763V34.4731V34.3701V34.2672V34.1645V34.062V33.9596V33.8574V33.7554V33.6536V33.552V33.4506V33.3494V33.2484V33.1476V33.047V32.9466V32.8465V32.7465V32.6468V32.5472V32.448V32.3489V32.2501V32.1515V32.0531V31.955V31.8572V31.7595V31.6622V31.5651V31.4682V31.3716V31.2753V31.1792V31.0834V30.9879V30.8926V30.7977V30.703V30.6086V30.5145V30.4207V30.3271V30.2339V30.141V30.0483V29.956V29.864V29.7723V29.6809V29.5899V29.4991V29.4087V29.3186V29.2289V29.1395V29.0504V28.9617V28.8733V28.7852V28.6975V28.6102V28.5232V28.4366V28.3503V28.2644V28.1789V28.0937V28.0089V27.9245V27.8405V27.7569V27.6736V27.5908V27.5083V27.4262V27.3446V27.2633V27.1825V27.102V27.022V26.9424V26.8632V26.7844V26.706V26.6281V26.5506V26.4735V26.3969V26.3207V26.245V26.1697V26.0949V26.0205V25.9465V25.8731V25.8V25.7275V25.6554V25.5838V25.5127V25.442V25.3718V25.3022V25.2329V25.1642V25.096V25.0283V24.9611V24.8943V24.8281V24.7624V24.6972V24.6325V24.5684V24.5047V24.4416V24.379V24.317V24.2555V24.1945V24.134V24.0741V24.0148V23.9559V23.8977V23.84V23.7828V23.7263V23.6702V23.6148V23.5599V23.5056V23.4519V23.3987V23.3462V23.2942V23.2428V23.192V23.1418V23.0922V23.0432V22.9948V22.947V22.8999V22.8533V22.8074V22.7621V22.7174V22.6733V22.6298V22.587V22.5449V22.5033V22.4625V22.4222V22.3826V22.3437V22.3054V22.2678V22.2308V22.1945V22.1588V22.1239V22.0896V22.056V22.023V21.9908V21.9592V21.9283V21.8981V21.8686V21.8399V21.8118V21.7844V21.7577V21.7317V21.7065V21.6819V21.6581V21.635V21.6126V21.591V21.5701V21.5499V21.5305V21.5118V21.4939V21.4767V21.4602V21.4445V21.4296V21.4154V21.402V21.3894V21.3775C55.7273 19.9859 55.0799 18.7457 54.5553 17.9471C54.0082 17.1144 53.4484 16.5444 53.3598 16.4558C53.3598 16.4558 53.3598 16.4558 53.3598 16.4558L53.3531 16.4491L53.3502 16.4462L40.9093 4.00531C40.9093 4.00531 40.9093 4.0053 40.9093 4.0053C40.8873 3.98336 40.8575 3.94957 40.7851 3.86203L39.6292 4.81795L40.7851 3.86203C40.3306 3.31239 38.649 1.51569 35.8655 1.51569H35.8506H35.8353H35.8196H35.8034H35.7868H35.7697H35.7522H35.7343H35.716H35.6972H35.6781H35.6585H35.6385H35.618H35.5972H35.576H35.5543H35.5323H35.5098H35.4869H35.4637H35.44H35.4159H35.3914H35.3666H35.3413H35.3157H35.2896H35.2632H35.2364H35.2092H35.1817H35.1537H35.1254H35.0967H35.0676H35.0381H35.0083H34.9781H34.9476H34.9166H34.8853H34.8537H34.8217H34.7893H34.7566H34.7235H34.6901H34.6563H34.6221H34.5877H34.5528H34.5177H34.4822H34.4463H34.4101H34.3736H34.3367H34.2995H34.262H34.2242H34.186H34.1475H34.1087H34.0695H34.03H33.9902H33.9501H33.9097H33.869H33.828H33.7866H33.7449H33.703H33.6607H33.6182H33.5753H33.5321H33.4887H33.4449H33.4009H33.3565H33.3119H33.267H33.2218H33.1763H33.1305H33.0845H33.0382H32.9916H32.9447H32.8976H32.8501H32.8025H32.7545H32.7063H32.6578H32.6091H32.5601H32.5108H32.4613H32.4115H32.3615H32.3113H32.2607H32.21H32.159H32.1077H32.0562H32.0045H31.9525H31.9003H31.8479H31.7952H31.7423H31.6891H31.6358H31.5822H31.5284H31.4744H31.4201H31.3656H31.311H31.2561H31.201H31.1456H31.0901H31.0344H30.9784H30.9223H30.866H30.8094H30.7527H30.6957H30.6386H30.5813H30.5238H30.4661H30.4082H30.3501H30.2919H30.2334H30.1748H30.116H30.057H29.9979H29.9386H29.8791H29.8194H29.7596H29.6996H29.6395H29.5792H29.5187H29.4581H29.3973H29.3364H29.2753H29.2141H29.1527H29.0911H29.0295H28.9676H28.9057H28.8436H28.7813H28.719H28.6565H28.5938H28.5311H28.4682H28.4051H28.342H28.2787H28.2153H28.1518H28.0882H28.0245H27.9606H27.8966H27.8326H27.7684H27.7041H27.6397H27.5752H27.5106H27.4459H27.3811H27.3162H27.2512H27.1861H27.121H27.0557H26.9904H26.9249H26.8594H26.7938H26.7282H26.6624H26.5966H26.5307H26.4647H26.3987H26.3326H26.2664H26.2002H26.1339H26.0675H26.0011H25.9346H25.8681H25.8015H25.7349H25.6682H25.6015H25.5347H25.4679H25.401H25.3341H25.2672H25.2002H25.1332H25.0661H24.999H24.9319H24.8648H24.7976H24.7304H24.6632H24.596H24.5287H24.4614H24.3942H24.3269H24.2596H24.1922H24.1249H24.0576H23.9902H23.9229H23.8556H23.7882H23.7209H23.6536H23.5862H23.5189H23.4516H23.3843H23.317H23.2498H23.1825H23.1153H23.0481H22.9809H22.9138H22.8466H22.7795H22.7125H22.6454H22.5784H22.5115H22.4445H22.3776H22.3108H22.244H22.1772H22.1105H22.0438H21.9772H21.9107H21.8442H21.7777H21.7113H21.645H21.5787H21.5125H21.4464H21.3803H21.3143H21.2483H21.1825H21.1167H21.051H20.9853H20.9198H20.8543H20.7889H20.7236H20.6584H20.5932H20.5282H20.4633H20.3984H20.3336H20.269H20.2044H20.14H20.0756H20.0114H19.9472H19.8832H19.8193H19.7554H19.6918H19.6282H19.5647H19.5014H19.4381H19.3751H19.3121H19.2492H19.1865H19.1239H19.0615H18.9992H18.937H18.8749H18.813H18.7513H18.6897H18.6282H18.5669H18.5057H18.4447H18.3838H18.3231H18.2625H18.2021H18.1419H18.0818H18.0219H17.9621H17.9025H17.8431H17.7839H17.7248H17.6659H17.6072H17.5486H17.4903H17.4321H17.3741H17.3163H17.2587H17.2012H17.144H17.0869H17.0301H16.9734H16.917H16.8607H16.8046H16.7488H16.6931H16.6377H16.5825H16.5274H16.4726H16.418H16.3636H16.3095H16.2555H16.2018H16.1483H16.0951H16.042H15.9892H15.9366H15.8843H15.8322H15.7803H15.7287H15.6773H15.6261H15.5752H15.5245H15.4741H15.424H15.374H15.3244H15.275H15.2258H15.1769H15.1283H15.0799H15.0318H14.984H14.9364H14.8891H14.8421H14.7953H14.7488H14.7026H14.6567H14.611H14.5657H14.5206H14.4758H14.4313H14.387H14.3431H14.2995H14.2561H14.2131H14.1703H14.1279H14.0858H14.0439H14.0024H13.9612H13.9203H13.8797H13.8394H13.7994H13.7597H13.7204H13.6814H13.6427H13.6043H13.5663H13.5285H13.4912H13.4541H13.4174H13.381H13.3449H13.3092H13.2738H13.2388H13.2041H13.1698H13.1358H13.1022H13.0689H13.0359H13.0033H12.9711H12.9393H12.9078H12.8766H12.8458H12.8154H12.7854H12.7557H12.7264H12.6975H12.6689H12.6407H12.6129H12.5855H12.5585H12.5318H12.5056H12.4797H12.4542H12.4291H12.4044H12.3801H12.3562H12.3327H12.3096H12.2869H12.2646H12.2427H12.2212H12.2001H12.1795H12.1592H12.1394H12.1199H12.1009H12.0824H12.0642H12.0465H12.0292H12.0123H11.9959H11.9798H11.9643H11.9491H11.9344H11.9201H11.9063H11.8929H11.88H11.8675H11.8554H11.8438H11.8327H11.822H11.8118H11.802H11.7927H11.7838H11.7754H11.7675H11.76H11.753H11.7465H11.7404H11.7349H11.7298H11.7251H11.721H11.7173H11.7141H11.7114H11.7092H11.7075H11.7063H11.7055Z" stroke="black" stroke-opacity="0.2" stroke-width="3"/>
<path d="M37.7766 3.41998V17.5053C37.7766 18.5761 38.6387 19.4382 39.7095 19.4382H53.6886C53.3734 18.8016 52.9177 18.1313 52.2918 17.5053L39.7285 4.94204C39.1201 4.17214 38.4434 3.70609 37.7956 3.42071L37.7766 3.41998Z" fill="white"/>
<path d="M39.7096 22.3375C37.0375 22.3375 34.8774 20.1772 34.8774 17.5053V2.99976L35.8656 3.01515C36.9274 3.01515 37.7767 3.41998 37.7767 3.41998V17.5053C37.7767 18.5761 38.6387 19.4382 39.7096 19.4382H53.6886C53.6886 19.4382 54.2274 20.4105 54.2274 21.3769V22.3375H39.7096Z" fill="#CCCCCC"/>
<path d="M25.249 39.5C26.4917 39.5 27.499 38.4926 27.499 37.25C27.499 36.0074 26.4917 35 25.249 35C24.0064 35 22.999 36.0074 22.999 37.25C22.999 38.4926 24.0064 39.5 25.249 39.5Z" fill="#666666"/>
<path d="M29.749 44L27.499 41L22.999 47H40.999L34.249 38L29.749 44Z" fill="#666666"/>
<path d="M43.999 29H19.999C18.3445 29 16.999 30.3455 16.999 32V50C16.999 51.6545 18.3445 53 19.999 53H43.999C45.6535 53 46.999 51.6545 46.999 50V32C46.999 30.3455 45.6535 29 43.999 29ZM19.999 50V32H43.999L44.002 50H19.999Z" fill="#666666"/>
</svg>
