<svg width="64" height="64" viewBox="0 0 64 64" fill="none" xmlns="http://www.w3.org/2000/svg">
<path d="M8.35306 8.99548H18.5391C21.3766 8.99548 21.4986 9.1032 24.3676 11.3752C27.3217 13.6067 27.9499 13.6694 31.4113 13.6694L55.6483 13.4714C58.0597 13.4525 60.0013 15.4127 60.0013 17.8239V43.4119C60.0013 45.8233 58.06 47.7648 55.6483 47.7648H8.35419C5.94273 47.7648 4.00122 45.8235 4.00122 43.4119V13.3481C4.00122 10.9367 5.94258 8.99518 8.35419 8.99518L8.35306 8.99548Z" fill="#46A2D7"/>
<path opacity="0.35" d="M8.35383 9.00001C5.94241 9.00001 4.00049 10.9421 4.00049 13.3534V23.9994H59.9991V17.8273C59.9991 15.4158 58.0568 13.4569 55.6457 13.4758L31.4094 13.6731C27.948 13.6731 27.3206 13.6096 24.3665 11.3782C21.4975 9.10627 21.3758 8.99927 18.5383 8.99927H8.35232L8.35383 9.00001Z" fill="url(#paint0_linear_15_1612)"/>
<path d="M55.6494 16.9704H8.35297C5.94889 16.9704 4 18.8805 4 21.2368V50.7041C4 53.0604 5.94889 54.9705 8.35297 54.9705H55.6494C58.0535 54.9705 60.0024 53.0604 60.0024 50.7041V21.2368C60.0024 18.8805 58.0535 16.9704 55.6494 16.9704Z" fill="#60C0F0"/>
<path opacity="0.1" d="M8.35383 17.0002C5.94241 17.0002 4.00049 18.9023 4.00049 21.2659V22.1546C4.00049 19.8532 5.9426 18.0004 8.35383 18.0004H55.648C58.0594 18.0004 60.0013 19.8533 60.0013 22.1546V21.2659C60.0013 18.9023 58.0592 17.0002 55.648 17.0002H8.35383Z" fill="white"/>
<defs>
<linearGradient id="paint0_linear_15_1612" x1="26.0003" y1="20.0103" x2="26.0003" y2="14.0009" gradientUnits="userSpaceOnUse">
<stop/>
<stop offset="1" stop-opacity="0"/>
</linearGradient>
</defs>
</svg>
