<svg width="59" height="59" viewBox="0 0 59 59" fill="none" xmlns="http://www.w3.org/2000/svg">
<path d="M29.5 59C45.7924 59 59 45.7924 59 29.5C59 13.2076 45.7924 0 29.5 0C13.2076 0 0 13.2076 0 29.5C0 45.7924 13.2076 59 29.5 59Z" fill="white"/>
<path d="M27.4907 0.0451475C21.5105 0.471818 15.7354 2.72824 11.0021 6.48623C9.86179 7.39701 7.4172 9.83395 6.55584 10.9252C3.09403 15.2987 0.985766 20.1972 0.255668 25.5551C-0.343178 30.0024 0.11621 34.7942 1.5682 39.0117C2.62644 42.105 4.43938 45.4117 6.49022 47.9799L7.19571 48.8661L7.74532 48.5543C8.04885 48.382 10.4196 47.0445 13.0119 45.5758L17.7288 42.9009L17.7698 33.7111L17.8109 24.5295L18.1143 23.8895C19.3039 21.3952 22.4703 20.8453 24.3735 22.7982C24.8739 23.3069 25.2266 23.9469 25.3989 24.6279L25.4892 24.9807H34.1027H42.7244L43.0033 25.2598C43.3725 25.629 43.3889 26.0146 43.0443 26.392L42.8064 26.6628L34.1437 26.6875L25.4809 26.7038V27.2372V27.7705H33.5449C42.503 27.7705 41.8549 27.7295 42.1009 28.3203C42.2322 28.6321 42.2075 29.2721 42.0025 30.4947C41.4693 33.7028 39.1395 36.7142 36.1126 38.1091C32.9378 39.5778 29.2955 39.3727 26.3013 37.5675C25.8994 37.3213 25.5465 37.1244 25.5302 37.1244C25.5055 37.1244 25.4728 39.9225 25.4645 43.344C25.4399 49.4651 25.4318 49.5718 25.2512 50.4497C24.718 52.9769 23.5696 55.3235 21.9207 57.2272C21.6337 57.5636 21.4039 57.859 21.4204 57.8672C21.4859 57.9328 23.0774 58.3102 24.0864 58.499C27.1708 59.0734 30.403 59.1554 33.4382 58.737C38.754 58.015 43.7498 55.8734 47.9991 52.501C49.1805 51.5574 51.7481 48.9728 52.634 47.8404C54.6849 45.1901 56.3911 42.0476 57.4331 39.0117C59.0327 34.3511 59.4183 29.2147 58.5405 24.2423C57.6955 19.4586 55.5873 14.8556 52.4044 10.8678C51.5676 9.80935 49.1066 7.36419 47.9991 6.48623C46.9081 5.62468 44.8572 4.24621 43.7334 3.63083C40.2716 1.73542 36.3586 0.521049 32.3718 0.118994C31.1824 -0.00408368 28.6721 -0.0369044 27.4907 0.0451475Z" fill="#084A83"/>
</svg>
