<svg width="45" height="45" viewBox="0 0 45 45" fill="none" xmlns="http://www.w3.org/2000/svg">
<circle cx="22.5" cy="22.5" r="22.5" fill="#084A83"/>
<path fill-rule="evenodd" clip-rule="evenodd" d="M25 23V27H21V23H18L23 18L28 23H25Z" fill="#084A83"/>
<path fill-rule="evenodd" clip-rule="evenodd" d="M30.4 20C29.7 16.6 26.7 14 23 14C20.1 14 17.6 15.6 16.4 18C13.3 18.4 11 20.9 11 24C11 27.3 13.7 30 17 30H30C32.8 30 35 27.8 35 25C35 22.4 32.9 20.2 30.4 20ZM25 23V27H21V23H18L23 18L28 23H25Z" fill="white"/>
</svg>
