<svg width="36" height="36" viewBox="0 0 36 36" fill="none" xmlns="http://www.w3.org/2000/svg">
<path d="M10.5 5H20.5L28 12.5V27.5C28 28.163 27.7366 28.7989 27.2678 29.2678C26.7989 29.7366 26.163 30 25.5 30H10.5C9.1125 30 8 28.875 8 27.5V7.5C8 6.1125 9.1125 5 10.5 5Z" fill="url(#paint0_linear_321_1530)"/>
<path d="M16.8334 22.6248L20.3334 19.9998L16.8334 17.3748V22.6248ZM18.0001 14.1665C14.7801 14.1665 12.1667 16.7798 12.1667 19.9998C12.1667 23.2198 14.7801 25.8332 18.0001 25.8332C21.2201 25.8332 23.8334 23.2198 23.8334 19.9998C23.8334 16.7798 21.2201 14.1665 18.0001 14.1665ZM18.0001 24.6665C15.4276 24.6665 13.3334 22.5723 13.3334 19.9998C13.3334 17.4273 15.4276 15.3332 18.0001 15.3332C20.5726 15.3332 22.6667 17.4273 22.6667 19.9998C22.6667 22.5723 20.5726 24.6665 18.0001 24.6665Z" fill="white"/>
<defs>
<linearGradient id="paint0_linear_321_1530" x1="28" y1="17" x2="8" y2="17" gradientUnits="userSpaceOnUse">
<stop stop-color="#9F03FF"/>
<stop offset="0.864583" stop-color="#FF3FB2"/>
</linearGradient>
</defs>
</svg>
