<svg width="36" height="36" viewBox="0 0 36 36" fill="none" xmlns="http://www.w3.org/2000/svg">
<path d="M10.6957 8.0061V7.0061C9.75364 7.0061 9 7.77265 9 8.70585V28.2988C9 29.232 9.75364 29.9985 10.6957 29.9985H25.3043C26.2464 29.9985 27 29.232 27 28.2988H26C27 28.2988 27 28.2987 27 28.2986V28.2982V28.2974V28.2964V28.2951V28.2935V28.2916V28.2894V28.2869V28.2842V28.2811V28.2778V28.2742V28.2703V28.2661V28.2616V28.2569V28.2519V28.2466V28.2411V28.2352V28.2291V28.2227V28.2161V28.2092V28.202V28.1946V28.1868V28.1789V28.1706V28.1621V28.1533V28.1443V28.135V28.1255V28.1157V28.1056V28.0953V28.0847V28.0739V28.0629V28.0515V28.04V28.0282V28.0161V28.0038V27.9912V27.9784V27.9654V27.9521V27.9386V27.9249V27.9109V27.8966V27.8822V27.8675V27.8525V27.8374V27.822V27.8064V27.7905V27.7744V27.7581V27.7416V27.7248V27.7078V27.6906V27.6732V27.6556V27.6377V27.6196V27.6013V27.5828V27.5641V27.5452V27.526V27.5067V27.4871V27.4673V27.4474V27.4272V27.4068V27.3862V27.3654V27.3444V27.3232V27.3018V27.2802V27.2584V27.2364V27.2142V27.1918V27.1692V27.1465V27.1235V27.1004V27.077V27.0535V27.0298V27.0059V26.9818V26.9576V26.9332V26.9085V26.8837V26.8588V26.8336V26.8083V26.7828V26.7571V26.7313V26.7052V26.679V26.6527V26.6262V26.5995V26.5726V26.5456V26.5184V26.4911V26.4635V26.4359V26.408V26.3801V26.3519V26.3236V26.2952V26.2666V26.2378V26.2089V26.1798V26.1506V26.1213V26.0918V26.0621V26.0323V26.0024V25.9723V25.9421V25.9117V25.8813V25.8506V25.8198V25.7889V25.7579V25.7267V25.6954V25.664V25.6324V25.6007V25.5689V25.537V25.5049V25.4727V25.4404V25.408V25.3754V25.3427V25.3099V25.277V25.244V25.2108V25.1776V25.1442V25.1107V25.0771V25.0434V25.0096V24.9757V24.9417V24.9075V24.8733V24.839V24.8045V24.77V24.7353V24.7006V24.6658V24.6308V24.5958V24.5607V24.5255V24.4902V24.4548V24.4193V24.3838V24.3481V24.3124V24.2765V24.2406V24.2046V24.1686V24.1324V24.0962V24.0599V24.0235V23.987V23.9505V23.9139V23.8772V23.8404V23.8036V23.7667V23.7298V23.6927V23.6556V23.6185V23.5813V23.544V23.5066V23.4692V23.4318V23.3943V23.3567V23.3191V23.2814V23.2436V23.2059V23.168V23.1301V23.0922V23.0542V23.0162V22.9781V22.94V22.9018V22.8636V22.8253V22.7871V22.7487V22.7104V22.672V22.6335V22.5951V22.5566V22.518V22.4795V22.4409V22.4023V22.3636V22.3249V22.2862V22.2475V22.2088V22.17V22.1312V22.0924V22.0536V22.0147V21.9759V21.937V21.8981V21.8592V21.8203V21.7814V21.7424V21.7035V21.6646V21.6256V21.5866V21.5477V21.5087V21.4698V21.4308V21.3918V21.3529V21.3139V21.2749V21.236V21.1971V21.1581V21.1192V21.0803V21.0414V21.0025V20.9636V20.9247V20.8859V20.847V20.8082V20.7694V20.7307V20.6919V20.6532V20.6144V20.5758V20.5371V20.4985V20.4599V20.4213V20.3827V20.3442V20.3057V20.2673V20.2289V20.1905V20.1522V20.1138V20.0756V20.0374V19.9992V19.961V19.9229V19.8849V19.8469V19.8089V19.771V19.7331V19.6953V19.6576V19.6199V19.5822V19.5446V19.5071V19.4696V19.4321V19.3948V19.3575V19.3202V19.283V19.2459V19.2089V19.1719V19.135V19.0981V19.0613V19.0246V18.988V18.9514V18.9149V18.8785V18.8421V18.8059V18.7697V18.7336V18.6975V18.6616V18.6257V18.59V18.5543V18.5187V18.4831V18.4477V18.4124V18.3771V18.342V18.3069V18.2719V18.237V18.2023V18.1676V18.133V18.0985V18.0641V18.0299V17.9957V17.9616V17.9276V17.8938V17.86V17.8264V17.7929V17.7594V17.7261V17.6929V17.6598V17.6269V17.594V17.5613V17.5287V17.4962V17.4638V17.4316V17.3994V17.3674V17.3356V17.3038V17.2722V17.2407V17.2093V17.1781V17.147V17.116V17.0852V17.0545V17.024V16.9935V16.9633V16.9331V16.9031V16.8733V16.8436V16.814V16.7846V16.7553V16.7262V16.6972V16.6684V16.6397V16.6112V16.5828V16.5546V16.5266V16.4987V16.4709V16.4433V16.4159V16.3887V16.3616V16.3346V16.3079V16.2813V16.2548V16.2286V16.2025V16.1765V16.1508V16.1252V16.0998V16.0746V16.0495V16.0246V15.9999V15.9754V15.9511V15.9269V15.903V15.8792V15.8556V15.8322V15.8089V15.7859V15.763V15.7404V15.7179V15.6956V15.6736V15.6517V15.63V15.6085V15.5872V15.5661V15.5452V15.5245V15.504V15.4838V15.4637V15.4438V15.4242V15.4047V15.3855V15.3664V15.3476V15.329V15.3106V15.2925V15.2745V15.2568V15.2392V15.2219V15.2049V15.188V15.1714V15.155V15.1388V15.1228V15.1071V15.0916V15.0763V15.0613V15.0465V15.0319V15.0176V15.0035V14.9896V14.976V14.9626V14.9495V14.9366V14.9239V14.9115V14.8993V14.8874V14.8757V14.8643V14.8531V14.8422V14.8315V14.8211V14.8109V14.801V14.7914V14.782V14.7728V14.7639V14.7553V14.7469V14.7388V14.731V14.7234V14.7161V14.7091V14.7023V14.6958V14.6896V14.6837V14.678V14.6726V14.6674V14.6626V14.658V14.6537C27 14.0179 26.7099 13.4782 26.5041 13.1631C26.2835 12.8255 26.0585 12.5944 26.0152 12.5509L26.0152 12.5508L26.0124 12.548L26.0117 12.5474L26.0115 12.5471L21.5391 8.04843L21.5323 8.04033L21.5184 8.02353C21.3265 7.79015 20.6034 7.0061 19.3913 7.0061H19.3859H19.3804H19.3748H19.3689H19.3629H19.3568H19.3505H19.3441H19.3375H19.3307H19.3238H19.3168H19.3096H19.3022H19.2947H19.2871H19.2793H19.2714H19.2633H19.255H19.2467H19.2381H19.2295H19.2207H19.2117H19.2026H19.1934H19.184H19.1745H19.1649H19.1551H19.1452H19.1351H19.1249H19.1146H19.1041H19.0935H19.0828H19.0719H19.0609H19.0498H19.0385H19.0271H19.0156H19.004H18.9922H18.9803H18.9682H18.9561H18.9438H18.9314H18.9188H18.9062H18.8934H18.8805H18.8675H18.8543H18.8411H18.8277H18.8142H18.8005H18.7868H18.773H18.759H18.7449H18.7307H18.7164H18.7019H18.6874H18.6727H18.6579H18.6431H18.6281H18.613H18.5978H18.5824H18.567H18.5515H18.5358H18.5201H18.5042H18.4883H18.4722H18.456H18.4398H18.4234H18.4069H18.3904H18.3737H18.3569H18.3401H18.3231H18.306H18.2889H18.2716H18.2542H18.2368H18.2193H18.2016H18.1839H18.1661H18.1482H18.1302H18.1121H18.0939H18.0756H18.0573H18.0388H18.0203H18.0016H17.9829H17.9642H17.9453H17.9263H17.9073H17.8882H17.869H17.8497H17.8303H17.8109H17.7913H17.7717H17.752H17.7323H17.7125H17.6925H17.6726H17.6525H17.6324H17.6122H17.5919H17.5715H17.5511H17.5306H17.5101H17.4894H17.4687H17.448H17.4271H17.4062H17.3853H17.3642H17.3431H17.322H17.3007H17.2795H17.2581H17.2367H17.2152H17.1937H17.1721H17.1505H17.1287H17.107H17.0852H17.0633H17.0414H17.0194H16.9973H16.9752H16.9531H16.9309H16.9086H16.8863H16.864H16.8416H16.8191H16.7966H16.7741H16.7515H16.7289H16.7062H16.6835H16.6607H16.6379H16.615H16.5921H16.5692H16.5462H16.5232H16.5001H16.477H16.4539H16.4307H16.4075H16.3842H16.3609H16.3376H16.3143H16.2909H16.2674H16.244H16.2205H16.197H16.1734H16.1499H16.1263H16.1026H16.079H16.0553H16.0316H16.0078H15.984H15.9602H15.9364H15.9126H15.8887H15.8648H15.8409H15.817H15.7931H15.7691H15.7451H15.7211H15.6971H15.6731H15.649H15.625H15.6009H15.5768H15.5527H15.5286H15.5044H15.4803H15.4561H15.432H15.4078H15.3836H15.3594H15.3352H15.311H15.2868H15.2626H15.2384H15.2141H15.1899H15.1657H15.1414H15.1172H15.093H15.0687H15.0445H15.0203H14.996H14.9718H14.9476H14.9233H14.8991H14.8749H14.8507H14.8265H14.8023H14.7781H14.7539H14.7298H14.7056H14.6814H14.6573H14.6332H14.6091H14.585H14.5609H14.5368H14.5127H14.4887H14.4647H14.4407H14.4167H14.3927H14.3687H14.3448H14.3209H14.297H14.2731H14.2493H14.2254H14.2016H14.1778H14.1541H14.1303H14.1066H14.083H14.0593H14.0357H14.0121H13.9885H13.965H13.9415H13.918H13.8946H13.8712H13.8478H13.8244H13.8011H13.7779H13.7546H13.7314H13.7083H13.6851H13.6621H13.639H13.616H13.593H13.5701H13.5472H13.5244H13.5016H13.4788H13.4561H13.4335H13.4108H13.3883H13.3657H13.3433H13.3208H13.2985H13.2761H13.2538H13.2316H13.2094H13.1873H13.1652H13.1432H13.1213H13.0994H13.0775H13.0557H13.034H13.0123H12.9907H12.9691H12.9476H12.9261H12.9048H12.8834H12.8622H12.841H12.8198H12.7988H12.7778H12.7568H12.7359H12.7151H12.6944H12.6737H12.6531H12.6326H12.6121H12.5917H12.5714H12.5512H12.531H12.5109H12.4909H12.4709H12.451H12.4312H12.4115H12.3918H12.3723H12.3528H12.3334H12.314H12.2948H12.2756H12.2565H12.2375H12.2186H12.1997H12.181H12.1623H12.1437H12.1252H12.1068H12.0885H12.0703H12.0521H12.0341H12.0161H11.9982H11.9804H11.9627H11.9451H11.9276H11.9102H11.8929H11.8757H11.8586H11.8416H11.8246H11.8078H11.7911H11.7744H11.7579H11.7415H11.7251H11.7089H11.6928H11.6768H11.6609H11.645H11.6293H11.6137H11.5983H11.5829H11.5676H11.5524H11.5374H11.5224H11.5076H11.4929H11.4782H11.4637H11.4494H11.4351H11.4209H11.4069H11.393H11.3791H11.3654H11.3519H11.3384H11.3251H11.3119H11.2988H11.2858H11.2729H11.2602H11.2476H11.2351H11.2228H11.2105H11.1984H11.1864H11.1746H11.1628H11.1512H11.1398H11.1284H11.1172H11.1062H11.0952H11.0844H11.0737H11.0632H11.0528H11.0425H11.0323H11.0223H11.0125H11.0027H10.9931H10.9837H10.9744H10.9652H10.9562H10.9473H10.9385H10.9299H10.9215H10.9132H10.905H10.897H10.8891H10.8813H10.8738H10.8663H10.859H10.8519H10.8449H10.8381H10.8314H10.8248H10.8185H10.8122H10.8062H10.8002H10.7945H10.7889H10.7834H10.7781H10.773H10.768H10.7632H10.7585H10.754H10.7497H10.7455H10.7415H10.7377H10.734H10.7305H10.7271H10.7239H10.7209H10.718H10.7154H10.7128H10.7105H10.7083H10.7063H10.7045H10.7028H10.7013H10.7H10.6988H10.6979H10.6971H10.6965H10.696H10.6957L10.6957 8.0061Z" fill="white" stroke="url(#paint0_linear_327_1107)" stroke-width="2"/>
<path d="M20.0791 8.15222V13.2516C20.0791 13.6393 20.3894 13.9514 20.7748 13.9514H25.8061C25.6926 13.7209 25.5286 13.4782 25.3033 13.2516L20.7816 8.70326C20.5626 8.42453 20.3191 8.2558 20.0859 8.15249L20.0791 8.15222Z" fill="white"/>
<path d="M20.7748 15.0009C19.8131 15.0009 19.0356 14.2188 19.0356 13.2515V8L19.3913 8.00557C19.7735 8.00557 20.0791 8.15214 20.0791 8.15214V13.2515C20.0791 13.6392 20.3894 13.9513 20.7748 13.9513H25.8061C25.8061 13.9513 26 14.3033 26 14.6532V15.0009H20.7748Z" fill="#9C5F04"/>
<path d="M12 20.4983H18H24V21.9983H12V20.4983ZM12 16.4983H18H24V17.9983H12V16.4983ZM12 24.4983H18H24V25.9983H12V24.4983Z" fill="#9C5F04"/>
<defs>
<linearGradient id="paint0_linear_327_1107" x1="28.5" y1="18.9983" x2="5.5" y2="18.9983" gradientUnits="userSpaceOnUse">
<stop stop-color="#7A4B03"/>
<stop offset="1" stop-color="#BA7205"/>
</linearGradient>
</defs>
</svg>
