<svg width="36" height="36" viewBox="0 0 36 36" fill="none" xmlns="http://www.w3.org/2000/svg">
<path d="M10.5 5H20.5L28 12.5V27.5C28 28.163 27.7366 28.7989 27.2678 29.2678C26.7989 29.7366 26.1631 30 25.5 30H10.5C9.11252 30 8.00002 28.875 8.00002 27.5V7.5C8.00002 6.1125 9.11252 5 10.5 5Z" fill="url(#paint0_linear_321_1531)"/>
<path d="M14.7322 20.9822C15.2011 20.5134 15.837 20.25 16.5 20.25C16.95 20.25 17.3875 20.375 17.75 20.5875V14H22.75V16.5H19V22.75C19 23.413 18.7366 24.0489 18.2678 24.5178C17.7989 24.9866 17.163 25.25 16.5 25.25C15.837 25.25 15.2011 24.9866 14.7322 24.5178C14.2634 24.0489 14 23.413 14 22.75C14 22.087 14.2634 21.4511 14.7322 20.9822Z" fill="white"/>
<defs>
<linearGradient id="paint0_linear_321_1531" x1="8" y1="18" x2="28" y2="18" gradientUnits="userSpaceOnUse">
<stop stop-color="#FF9D42"/>
<stop offset="1" stop-color="#FF0514"/>
</linearGradient>
</defs>
</svg>
