<svg width="45" height="45" viewBox="0 0 45 45" fill="none" xmlns="http://www.w3.org/2000/svg">
<circle cx="22.5" cy="22.5" r="22.5" fill="#084A83"/>
<path d="M12.375 22.25C12.375 20.1125 14.1125 18.375 16.25 18.375H21.25V16H16.25C12.8 16 10 18.8 10 22.25C10 25.7 12.8 28.5 16.25 28.5H21.25V26.125H16.25C14.1125 26.125 12.375 24.3875 12.375 22.25ZM17.5 23.5H27.5V21H17.5V23.5ZM28.75 16H23.75V18.375H28.75C30.8875 18.375 32.625 20.1125 32.625 22.25C32.625 24.3875 30.8875 26.125 28.75 26.125H23.75V28.5H28.75C32.2 28.5 35 25.7 35 22.25C35 18.8 32.2 16 28.75 16Z" fill="white"/>
</svg>
