<svg width="182" height="59" viewBox="0 0 182 59" fill="none" xmlns="http://www.w3.org/2000/svg">
<path d="M30 49C41.0457 49 50 40.0457 50 29C50 17.9543 41.0457 9 30 9C18.9543 9 10 17.9543 10 29C10 40.0457 18.9543 49 30 49Z" fill="white"/>
<path d="M28.6378 9.03061C24.5834 9.31988 20.6681 10.8497 17.459 13.3974C16.686 14.0149 15.0286 15.6671 14.4446 16.4069C12.0977 19.372 10.6683 22.693 10.1733 26.3255C9.76734 29.3406 10.0788 32.5893 11.0632 35.4486C11.7806 37.5458 13.0097 39.7876 14.4001 41.5288L14.8784 42.1296L15.2511 41.9182C15.4569 41.8014 17.0641 40.8946 18.8216 39.8989L22.0195 38.0854L22.0473 31.855L22.0752 25.6302L22.2809 25.1963C23.0874 23.5052 25.2341 23.1324 26.5244 24.4564C26.8637 24.8013 27.1028 25.2352 27.2196 25.6969L27.2808 25.9361H33.1205H38.9657L39.1548 26.1253C39.4051 26.3756 39.4162 26.637 39.1826 26.8929L39.0213 27.0765L33.1483 27.0932L27.2752 27.1043V27.4659V27.8275H32.7423C38.8156 27.8275 38.3762 27.7997 38.543 28.2002C38.632 28.4116 38.6153 28.8455 38.4763 29.6744C38.1148 31.8494 36.5353 33.891 34.4831 34.8367C32.3307 35.8324 29.8614 35.6934 27.8314 34.4695C27.5589 34.3026 27.3197 34.1691 27.3086 34.1691C27.2919 34.1691 27.2697 36.0661 27.2641 38.3858C27.2474 42.5357 27.2419 42.608 27.1195 43.2032C26.758 44.9166 25.9794 46.5075 24.8615 47.7981C24.6669 48.0262 24.5111 48.2265 24.5223 48.232C24.5667 48.2765 25.6457 48.5324 26.3298 48.6604C28.4209 49.0498 30.6122 49.1054 32.67 48.8217C36.2739 48.3322 39.6609 46.8803 42.5418 44.5939C43.3427 43.9542 45.0835 42.2019 45.6841 41.4342C47.0745 39.6374 48.2313 37.5069 48.9377 35.4486C50.0222 32.2889 50.2836 28.8066 49.6885 25.4355C49.1156 22.1923 47.6863 19.0716 45.5284 16.368C44.9611 15.6504 43.2926 13.9927 42.5418 13.3974C41.8021 12.8133 40.4117 11.8788 39.6498 11.4616C37.3028 10.1766 34.6499 9.35325 31.947 9.08067C31.1406 8.99723 29.4387 8.97498 28.6378 9.03061Z" fill="#084A83"/>
<path d="M67.296 21.95H73.668C75.276 21.95 76.524 22.34 77.412 23.12C78.312 23.9 78.762 24.968 78.762 26.324C78.762 26.864 78.6 27.392 78.276 27.908C77.952 28.412 77.544 28.754 77.052 28.934C77.748 29.162 78.318 29.582 78.762 30.194C79.218 30.794 79.446 31.454 79.446 32.174C79.446 33.074 79.236 33.86 78.816 34.532C78.408 35.204 77.808 35.72 77.016 36.08C76.224 36.44 75.288 36.62 74.208 36.62H67.296V21.95ZM73.524 27.89C74.148 27.89 74.628 27.758 74.964 27.494C75.312 27.218 75.486 26.828 75.486 26.324C75.486 25.808 75.312 25.418 74.964 25.154C74.628 24.878 74.148 24.74 73.524 24.74H70.572V27.89H73.524ZM74.064 33.83C74.724 33.83 75.24 33.686 75.612 33.398C75.984 33.11 76.17 32.702 76.17 32.174C76.17 31.646 75.984 31.238 75.612 30.95C75.24 30.662 74.724 30.518 74.064 30.518H70.572V33.83H74.064ZM86.3441 25.82C87.4121 25.82 88.3721 26.06 89.2241 26.54C90.0761 27.008 90.7421 27.662 91.2221 28.502C91.7021 29.342 91.9421 30.29 91.9421 31.346C91.9421 32.402 91.7021 33.35 91.2221 34.19C90.7421 35.03 90.0761 35.684 89.2241 36.152C88.3721 36.632 87.4121 36.872 86.3441 36.872C85.2761 36.872 84.3161 36.632 83.4641 36.152C82.6121 35.684 81.9461 35.03 81.4661 34.19C80.9861 33.35 80.7461 32.402 80.7461 31.346C80.7461 30.29 80.9861 29.342 81.4661 28.502C81.9461 27.662 82.6121 27.008 83.4641 26.54C84.3161 26.06 85.2761 25.82 86.3441 25.82ZM86.3441 28.556C85.6001 28.556 84.9941 28.82 84.5261 29.348C84.0701 29.864 83.8421 30.53 83.8421 31.346C83.8421 32.162 84.0701 32.834 84.5261 33.362C84.9941 33.878 85.6001 34.136 86.3441 34.136C87.0881 34.136 87.6881 33.878 88.1441 33.362C88.6121 32.834 88.8461 32.162 88.8461 31.346C88.8461 30.53 88.6121 29.864 88.1441 29.348C87.6881 28.82 87.0881 28.556 86.3441 28.556ZM98.8773 25.82C99.9453 25.82 100.905 26.06 101.757 26.54C102.609 27.008 103.275 27.662 103.755 28.502C104.235 29.342 104.475 30.29 104.475 31.346C104.475 32.402 104.235 33.35 103.755 34.19C103.275 35.03 102.609 35.684 101.757 36.152C100.905 36.632 99.9453 36.872 98.8773 36.872C97.8093 36.872 96.8493 36.632 95.9973 36.152C95.1453 35.684 94.4793 35.03 93.9993 34.19C93.5193 33.35 93.2793 32.402 93.2793 31.346C93.2793 30.29 93.5193 29.342 93.9993 28.502C94.4793 27.662 95.1453 27.008 95.9973 26.54C96.8493 26.06 97.8093 25.82 98.8773 25.82ZM98.8773 28.556C98.1333 28.556 97.5273 28.82 97.0593 29.348C96.6033 29.864 96.3753 30.53 96.3753 31.346C96.3753 32.162 96.6033 32.834 97.0593 33.362C97.5273 33.878 98.1333 34.136 98.8773 34.136C99.6213 34.136 100.221 33.878 100.677 33.362C101.145 32.834 101.379 32.162 101.379 31.346C101.379 30.53 101.145 29.864 100.677 29.348C100.221 28.82 99.6213 28.556 98.8773 28.556ZM112.148 21.59C113.228 21.59 114.206 21.794 115.082 22.202C115.958 22.61 116.654 23.18 117.17 23.912C117.698 24.632 117.986 25.454 118.034 26.378H114.65C114.554 25.73 114.272 25.226 113.804 24.866C113.336 24.506 112.712 24.326 111.932 24.326C111.188 24.326 110.606 24.464 110.186 24.74C109.766 25.004 109.556 25.364 109.556 25.82C109.556 26.18 109.688 26.474 109.952 26.702C110.216 26.93 110.618 27.134 111.158 27.314C111.71 27.482 112.508 27.674 113.552 27.89C115.172 28.226 116.33 28.784 117.026 29.564C117.734 30.332 118.088 31.298 118.088 32.462C118.088 33.374 117.824 34.172 117.296 34.856C116.78 35.54 116.072 36.062 115.172 36.422C114.272 36.794 113.27 36.98 112.166 36.98C110.966 36.98 109.886 36.77 108.926 36.35C107.978 35.942 107.222 35.354 106.658 34.586C106.106 33.818 105.806 32.918 105.758 31.886H109.124C109.22 32.594 109.556 33.164 110.132 33.596C110.72 34.016 111.476 34.226 112.4 34.226C113.072 34.226 113.624 34.076 114.056 33.776C114.5 33.476 114.722 33.086 114.722 32.606C114.722 32.222 114.602 31.904 114.362 31.652C114.134 31.4 113.762 31.184 113.246 31.004C112.742 30.824 112.034 30.65 111.122 30.482C109.478 30.17 108.248 29.648 107.432 28.916C106.616 28.184 106.208 27.152 106.208 25.82C106.208 24.956 106.466 24.206 106.982 23.57C107.51 22.934 108.224 22.448 109.124 22.112C110.024 21.764 111.032 21.59 112.148 21.59ZM126.385 28.826H124.297V36.62H121.093V28.826H119.005V26.072H121.093V22.94H124.297V26.072H126.385V28.826ZM132.715 25.82C133.783 25.82 134.743 26.06 135.595 26.54C136.447 27.008 137.113 27.662 137.593 28.502C138.073 29.342 138.313 30.29 138.313 31.346C138.313 32.402 138.073 33.35 137.593 34.19C137.113 35.03 136.447 35.684 135.595 36.152C134.743 36.632 133.783 36.872 132.715 36.872C131.647 36.872 130.687 36.632 129.835 36.152C128.983 35.684 128.317 35.03 127.837 34.19C127.357 33.35 127.117 32.402 127.117 31.346C127.117 30.29 127.357 29.342 127.837 28.502C128.317 27.662 128.983 27.008 129.835 26.54C130.687 26.06 131.647 25.82 132.715 25.82ZM132.715 28.556C131.971 28.556 131.365 28.82 130.897 29.348C130.441 29.864 130.213 30.53 130.213 31.346C130.213 32.162 130.441 32.834 130.897 33.362C131.365 33.878 131.971 34.136 132.715 34.136C133.459 34.136 134.059 33.878 134.515 33.362C134.983 32.834 135.217 32.162 135.217 31.346C135.217 30.53 134.983 29.864 134.515 29.348C134.059 28.82 133.459 28.556 132.715 28.556ZM140.19 26.072H143.394V27.152C144.054 26.264 145.038 25.82 146.346 25.82C146.922 25.82 147.384 25.88 147.732 26L147.768 29.006C147.312 28.766 146.766 28.646 146.13 28.646C145.278 28.646 144.606 28.874 144.114 29.33C143.634 29.786 143.394 30.416 143.394 31.22V36.62H140.19V26.072ZM153.859 36.872C152.803 36.872 151.855 36.632 151.015 36.152C150.187 35.684 149.539 35.03 149.071 34.19C148.603 33.35 148.369 32.402 148.369 31.346C148.369 30.29 148.603 29.342 149.071 28.502C149.539 27.662 150.187 27.008 151.015 26.54C151.855 26.06 152.803 25.82 153.859 25.82C154.915 25.82 155.857 26.06 156.685 26.54C157.525 27.008 158.179 27.662 158.647 28.502C159.115 29.342 159.349 30.29 159.349 31.346C159.349 31.694 159.325 32.036 159.277 32.372H151.555C151.675 32.984 151.939 33.458 152.347 33.794C152.755 34.13 153.259 34.298 153.859 34.298C154.315 34.298 154.717 34.226 155.065 34.082C155.425 33.926 155.671 33.722 155.803 33.47H159.025C158.845 34.142 158.509 34.73 158.017 35.234C157.525 35.75 156.919 36.152 156.199 36.44C155.479 36.728 154.699 36.872 153.859 36.872ZM156.217 30.302C156.085 29.666 155.815 29.186 155.407 28.862C154.999 28.526 154.483 28.358 153.859 28.358C153.235 28.358 152.725 28.526 152.329 28.862C151.933 29.186 151.669 29.666 151.537 30.302H156.217Z" fill="#282828"/>
</svg>
