<svg width="100" height="100" viewBox="0 0 100 100" fill="none" xmlns="http://www.w3.org/2000/svg">
<path d="M50 99.9999C77.6142 99.9999 99.9999 77.6142 99.9999 50C99.9999 22.3857 77.6142 0 50 0C22.3857 0 0 22.3857 0 50C0 77.6142 22.3857 99.9999 50 99.9999Z" fill="white"/>
<path d="M46.5945 0.0765213C36.4585 0.799692 26.6702 4.62414 18.6476 10.9936C16.7149 12.5373 12.5715 16.6677 11.1116 18.5174C5.24412 25.93 1.67079 34.2325 0.433335 43.3137C-0.581657 50.8515 0.196967 58.9732 2.65797 66.1215C4.4516 71.3645 7.52437 76.9689 11.0004 81.3219L12.1961 82.8239L13.1277 82.2954C13.6421 82.0034 17.6604 79.7364 22.054 77.2472L30.0487 72.7135L30.1182 57.1375L30.188 41.5755L30.7022 40.4907C32.7185 36.263 38.0852 35.331 41.311 38.641C42.1592 39.5032 42.757 40.588 43.049 41.7422L43.202 42.3402H57.8012H72.4142L72.887 42.8132C73.5127 43.439 73.5405 44.0925 72.9565 44.7322L72.5532 45.1912L57.8707 45.233L43.188 45.2607V46.1647V47.0687H56.8557C72.039 47.0687 70.9405 46.9992 71.3575 48.0005C71.58 48.529 71.5382 49.6137 71.1907 51.686C70.287 57.1235 66.3382 62.2275 61.2077 64.5917C55.8267 67.081 49.6535 66.7335 44.5785 63.6737C43.8972 63.2565 43.2992 62.9227 43.2715 62.9227C43.2297 62.9227 43.1742 67.6652 43.1602 73.4645C43.1185 83.8392 43.1047 84.0199 42.7987 85.5079C41.895 89.7914 39.9485 93.7687 37.1537 96.9952C36.6672 97.5654 36.2777 98.0662 36.3057 98.0799C36.4167 98.1912 39.1142 98.8309 40.8245 99.1509C46.0522 100.124 51.5305 100.263 56.675 99.5542C65.6847 98.3304 74.1522 94.7007 81.3545 88.9847C83.3567 87.3854 87.7087 83.0047 89.2102 81.0854C92.6862 76.5934 95.5782 71.2672 97.3442 66.1215C100.055 58.2222 100.709 49.5165 99.2212 41.0887C97.7889 32.9807 94.2157 25.179 88.821 18.42C87.4027 16.626 83.2315 12.4817 81.3545 10.9936C79.5052 9.53336 76.0292 7.19697 74.1245 6.15394C68.257 2.94139 61.6247 0.883134 54.8675 0.201685C52.8515 -0.00692149 48.5967 -0.0625499 46.5945 0.0765213Z" fill="#084A83"/>
</svg>
